<?xml version="1.0" encoding="utf-8"?>
<svg width="1505.55" height="1143.56" xmlns="http://www.w3.org/2000/svg">
  <g transform="translate(0 0)">
    <path d="M 572 384 L 812 384 L 812 444 L 572 444 Z" fill="none" display="block"/>
    <g display="block"/>
    <g display="block"/>
    <path d="M 411 610 L 1030 610 L 411 610 Z" fill-opacity="0" display="block"/>
    <path d="M 768.8 663 C 775.54 663 781 667.48 781 673 C 781 678.52 775.54 683 768.8 683 L 732.2 683 C 725.46 683 720 678.52 720 673 C 720 667.48 725.46 663 732.2 663 Z" stroke="#000" stroke-width="2" fill-opacity="0" display="block"/>
    <path d="M 260.37 222.2 C 260.37 226.16 257.17 229.37 253.19 229.37 C 249.19 229.37 245.99 226.17 245.99 222.19 C 245.99 218.19 249.19 214.99 253.19 214.99 C 257.15 214.99 260.36 218.19 260.36 222.19 Z" stroke="#000" stroke-width="2" fill="#fff" display="block"/>
    <path d="M 334.92 160 L 331.57 160.1 L 328.57 160.4 L 325.79 160.87 L 323.19 161.47 L 320.74 162.24 L 318.38 163.14 L 316.06 164.24 L 313.74 165.49 L 311.39 166.99 L 308.93 168.81 L 306.25 171.08 L 303.15 174.06 L 299.09 178.58 L 278.17 204.26 L 274.11 208.19 L 270.39 211.35 L 266.79 214 L 263.19 216.3 L 260.06 218.04 M 334.92 160 L 337.88 159.5 M 260.07 218.04 L 257.59 219.74" stroke="#000" stroke-width="2" fill="none" display="block"/>
    <path d="M 1340.37 222.2 C 1340.37 226.16 1337.17 229.37 1333.19 229.37 C 1329.19 229.37 1325.99 226.17 1325.99 222.19 C 1325.99 218.19 1329.19 214.99 1333.19 214.99 C 1337.15 214.99 1340.36 218.19 1340.36 222.19 Z" stroke="#000" stroke-width="2" fill="#fff" display="block"/>
    <path d="M 1255.72 161.83 L 1259.47 163.53 L 1262.97 165.45 L 1266.37 167.62 L 1269.71 170.12 L 1273.15 173.12 L 1276.9 176.87 L 1281.64 182.4 L 1298.9 204.44 L 1302.3 207.84 L 1305.3 210.47 L 1308.2 212.63 L 1311.08 214.48 L 1314.01 216.08 L 1317.09 217.48 L 1320.39 218.7 L 1323.97 219.75 L 1325.45 220.1 M 1255.72 161.83 L 1253.12 160.33 M 1325.44 220.1 L 1328.24 221.18 M 571.54 160.2 L 652.62 160.2 M 571.54 160.2 L 568.54 160.2 M 652.62 160.2 L 655.62 160.2" stroke="#000" stroke-width="2" fill="none" display="block"/>
    <path d="M 661.68 160.2 C 661.68 162.4 659.9 164.18 657.68 164.18 C 655.48 164.18 653.7 162.4 653.7 160.18 C 653.7 157.98 655.48 156.2 657.7 156.2 C 659.9 156.2 661.68 157.98 661.68 160.2 Z" stroke="#000" stroke-width="2" display="block"/>
    <path d="M 662.48 159.5 L 721.38 159.54 M 662.48 159.5 L 659.48 159.5 M 721.4 159.54 L 724.4 159.54 M 922.5 260 L 657.93 260 L 657.93 165.17 M 922.5 260 L 925.5 260 M 657.93 165.17 L 657.93 162.17" stroke="#000" stroke-width="2" fill="none" display="block"/>
    <path d="M 720 310 L 792 310 L 792 350 L 720 350 Z" stroke="#000" stroke-width="2" fill="#fff" display="block"/>
    <path d="M 753.6 380 L 758.4 380 L 756 383.6 Z" stroke="#000" stroke-width="2" fill="#fff" display="block"/>
    <path d="M 756 351 L 756 385.4 M 756 351 L 756 348 M 756 385.4 L 756 388.4" stroke="#000" stroke-width="2" fill="none" display="block"/>
    <path d="M 673 305.4 L 703 305.4 L 703 327 L 673 327 Z" fill="none" display="block"/>
    <path d="M 1146 314 C 1156.5 314 1165 323.63 1165 335.5 C 1165 347.37 1156.5 357 1146 357 L 1089 357 C 1078.5 357 1070 347.37 1070 335.5 C 1070 323.63 1078.5 314 1089 314 Z" stroke="#000" stroke-width="2" fill="#fff" display="block"/>
    <path d="M 895.17 335.6 L 793 335.67 M 895.17 335.6 L 898.17 335.6 M 793 335.67 L 790 335.67" stroke="#000" stroke-width="2" fill="none" display="block"/>
    <path d="M 896.44 280 C 901.02 280 904.74 284.333 904.74 289.68 C 904.74 295.027 901.02 299.36 896.44 299.36 L 871.56 299.36 C 866.98 299.36 863.26 295.027 863.26 289.68 C 863.26 284.333 866.98 280 871.56 280 Z" stroke="#000" stroke-width="2" fill="#fff" display="block"/>
    <path d="M 863.263 290.11 L 810 290.5 L 810 324.58 L 793 324.58 M 793 324.58 L 790 324.58 M 793 343.85 L 857.75 343.85 L 857.75 389 L 922.5 389 M 793 343.85 L 790 343.85 M 922.5 389 L 925.5 389" stroke="#000" stroke-width="2" fill="none" display="block"/>
    <path d="M 903.98 335 C 903.98 337.2 902.2 338.98 899.98 338.98 C 897.78 338.98 896 337.2 896 334.98 C 896 332.78 897.78 331 900 331 C 902.2 331 903.98 332.78 903.98 335 Z" stroke="#000" stroke-width="2" display="block"/>
    <path d="M 901 480 L 900 340.07 M 901 480 L 901 483 M 900 340.07 L 899.97 337.07 M 984 247.25 L 969 261.12 L 984 275 L 999 261.12 Z M 984 259.95 L 984 262.73 M 984 265.5 L 984 268.28 M 984 257.18 L 984 254.4 M 984 251.63 L 984 247.25 M 984 271.05 L 984 275 M 999 261.12 L 1014 261.12 M 969 261.12 L 954 261.12" stroke="#000" stroke-width="2" fill="none" display="block"/>
    <path d="M 923 250 L 923 270 L 938 260 Z M 938 260 L 940 260 Z M 940 260 L 955 250 L 955 270 Z" stroke="#000" fill="#fff" display="block"/>
    <path d="M 953 270 L 957.8 270 L 955.4 273.6 Z" stroke="#000" stroke-width="2" fill="#fff" display="block"/>
    <path d="M 861.48 679.48 L 762 679.48 M 861.48 666.6 L 762 666.6 M 861.48 698.8 L 861.48 647.28 M 875.7 698.8 L 875.7 647.28 M 797.54 666.6 L 797.54 647.28 L 897.02 647.28 L 897.02 698.78 L 797.54 698.78 L 797.54 679.48" stroke="#000" stroke-width="2" fill="none" display="block"/>
    <path d="M 861.48 698.8 L 847.28 647.28 L 833.06 698.78 L 818.86 647.28 L 804.64 698.78 L 797.54 673.04 M 889.9 647.28 L 889.9 627.98" style="stroke-linejoin: bevel;" stroke="#000" stroke-width="2" fill="none" display="block"/>
    <path d="M 890.4 627.431 L 890.4 536.846 M 890.4 627.431 L 890.4 630.97 M 890.4 536.881 L 890.4 533.343" stroke="#000" stroke-width="2" fill="none" display="block"/>
    <path d="M 908.88 533.4 L 873.28 533.4 L 873.28 497.8 L 908.88 497.8 Z" fill="none" stroke="#000" stroke-width="2" display="block"/>
    <path d="M 901.76 497.8 L 901.76 533.4 L 898.21 522.7 L 905.33 522.7 L 901.67 533.2" stroke="#000" stroke-width="2" display="block"/>
    <path d="M 901.76 533.9 L 901.76 498.3 L 898.21 508.98 L 905.33 508.98 L 901.67 498.48" stroke="#000" stroke-width="2" display="block"/>
    <path d="M 901.76 497.8 L 901.76 480 M 908.88 515.6 L 916 515.6 M 898.2 497.8 L 891.08 490.68 L 883.98 497.8 M 891.08 533.4 L 896.5 538.4 M 898.2 540.5 L 905.32 540.5 M 908.88 540.5 L 916 540.5 M 916 536.95 L 916 529.83 M 916 526.27 L 916 519.15 M 872.97 531.22 L 862.861 531.22 L 850.1 531.22 L 850.1 518.15 L 872.97 518.15 L 872.97 531.22 Z M 872.97 513.14 L 850.1 513.14 L 850.1 500.07 L 872.97 500.07 L 872.97 513.14 Z" fill="none" stroke="#000" stroke-width="2" display="block"/>
    <path d="M 850.08 512.42 L 856.08 506.54 L 850 501.14 Z M 850.08 530.5 L 856.08 524.63 L 850 519.23 Z" fill="none" stroke="#000" stroke-width="2" display="block"/>
    <path d="M 1313 971 C 1314.1 971 1315 961.6 1315 950 C 1315 938.4 1314.1 929 1313 929 L 1331 929 C 1332.1 929 1333 938.4 1333 950 C 1333 961.6 1332.1 971 1331 971 Z M 1162 971 C 1163.1 971 1164 961.6 1164 950 C 1164 938.4 1163.1 929 1162 929 L 1180 929 C 1181.1 929 1182 938.4 1182 950 C 1182 961.6 1181.1 971 1180 971 Z M 1070 929 C 1068.9 929 1068 938.4 1068 950 C 1068 961.6 1068.9 971 1070 971 L 1052 971 C 1050.9 971 1050 961.6 1050 950 C 1050 938.4 1050.9 929 1052 929 Z M 1221 929 C 1219.9 929 1219 938.4 1219 950 C 1219 961.6 1219.9 971 1221 971 L 1203 971 C 1201.9 971 1201 961.6 1201 950 C 1201 938.4 1201.9 929 1203 929 Z M 1303.5 837 L 1342.5 837 L 1323 867 Z" stroke="#666" stroke-width="2" fill="#666" display="block"/>
    <path d="M 1327 895 C 1327 897.2 1325.2 899 1323 899 C 1320.8 899 1319 897.2 1319 895 C 1319 892.8 1320.8 891 1323 891 C 1325.2 891 1327 892.8 1327 895 Z M 1215 895 C 1215 897.2 1213.2 899 1211 899 C 1208.8 899 1207 897.2 1207 895 C 1207 892.8 1208.8 891 1211 891 C 1213.2 891 1215 892.8 1215 895 Z M 1176 895 C 1176 897.2 1174.2 899 1172 899 C 1169.8 899 1168 897.2 1168 895 C 1168 892.8 1169.8 891 1172 891 C 1174.2 891 1176 892.8 1176 895 Z M 1064 895 C 1064 897.2 1062.2 899 1060 899 C 1057.8 899 1056 897.2 1056 895 C 1056 892.8 1057.8 891 1060 891 C 1062.2 891 1064 892.8 1064 895 Z M 1215 855 C 1215 857.2 1213.2 859 1211 859 C 1208.8 859 1207 857.2 1207 855 C 1207 852.8 1208.8 851 1211 851 C 1213.2 851 1215 852.8 1215 855 Z M 1176 855 C 1176 857.2 1174.2 859 1172 859 C 1169.8 859 1168 857.2 1168 855 C 1168 852.8 1169.8 851 1172 851 C 1174.2 851 1176 852.8 1176 855 Z M 1327 863 C 1327 865.2 1325.2 867 1323 867 C 1320.8 867 1319 865.2 1319 863 C 1319 860.8 1320.8 859 1323 859 C 1325.2 859 1327 860.8 1327 863 Z M 1064 854.5 C 1064 856.7 1062.2 858.5 1060 858.5 C 1057.8 858.5 1056 856.7 1056 854.5 C 1056 852.3 1057.8 850.5 1060 850.5 C 1062.2 850.5 1064 852.3 1064 854.5 Z" stroke="#666" stroke-width="2" fill="#fff" display="block"/>
    <path d="M 1323 900.08 L 1323 928 M 1323 900.08 L 1323 897.08 M 1323 928 L 1323 931 M 1211 928 L 1211 900.1 M 1211 928 L 1211 931 M 1211 900.08 L 1211 897.08 M 1211 860.08 L 1211 889.92 M 1211 860.08 L 1211 857.08 M 1211 889.92 L 1211 892.92 M 1323 868.83 L 1323 889.93 M 1323 868.83 L 1323 865.83 M 1323 889.92 L 1323 892.92 M 1216.08 895 L 1317.92 895 M 1216.08 895 L 1213.08 895 M 1317.92 895 L 1320.92 895 M 1177.08 855 L 1205.92 855 M 1177.08 855 L 1174.08 855 M 1205.92 855 L 1208.92 855 M 1172 860.08 L 1172 889.92 M 1172 860.08 L 1172 857.08 M 1172 889.92 L 1172 892.92 M 1172 900.08 L 1172 928 M 1172 900.08 L 1172 897.08 M 1172 928 L 1172 931 M 1060 859.58 L 1060 889.92 M 1060 859.58 L 1060 856.58 M 1060 889.92 L 1060 892.92 M 1060 928 L 1060 900.1 M 1060 928 L 1060 931 M 1060 900.08 L 1060 897.08 M 1065.08 895 L 1166.92 895 M 1065.08 895 L 1062.08 895 M 1166.92 895 L 1169.92 895" stroke="#000" stroke-width="2" fill="none" display="block"/>
    <path d="M 367 950 C 367 972.1 349.1 990 327 990 C 304.9 990 287 972.1 287 950 C 287 927.9 304.9 910 327 910 C 349.1 910 367 927.9 367 950 Z M 517 950 C 517 972.1 499.1 990 477 990 C 454.9 990 437 972.1 437 950 C 437 927.9 454.9 910 477 910 C 499.1 910 517 927.9 517 950 Z" stroke="#000" stroke-width="2" fill="#fff" display="block"/>
    <path d="M 523 971 C 524.1 971 525 961.6 525 950 C 525 938.4 524.1 929 523 929 L 541 929 C 542.1 929 543 938.4 543 950 C 543 961.6 542.1 971 541 971 Z M 372 971 C 373.1 971 374 961.6 374 950 C 374 938.4 373.1 929 372 929 L 390 929 C 391.1 929 392 938.4 392 950 C 392 961.6 391.1 971 390 971 Z M 280 929 C 278.9 929 278 938.4 278 950 C 278 961.6 278.9 971 280 971 L 262 971 C 260.9 971 260 961.6 260 950 C 260 938.4 260.9 929 262 929 Z M 431 929 C 429.9 929 429 938.4 429 950 C 429 961.6 429.9 971 431 971 L 413 971 C 411.9 971 411 961.6 411 950 C 411 938.4 411.9 929 413 929 Z M 250.5 828 L 289.5 828 L 270 858 Z" stroke="#666" stroke-width="2" fill="#666" display="block"/>
    <path d="M 537 895 C 537 897.2 535.2 899 533 899 C 530.8 899 529 897.2 529 895 C 529 892.8 530.8 891 533 891 C 535.2 891 537 892.8 537 895 Z M 425 895 C 425 897.2 423.2 899 421 899 C 418.8 899 417 897.2 417 895 C 417 892.8 418.8 891 421 891 C 423.2 891 425 892.8 425 895 Z M 386 895 C 386 897.2 384.2 899 382 899 C 379.8 899 378 897.2 378 895 C 378 892.8 379.8 891 382 891 C 384.2 891 386 892.8 386 895 Z M 274 895 C 274 897.2 272.2 899 270 899 C 267.8 899 266 897.2 266 895 C 266 892.8 267.8 891 270 891 C 272.2 891 274 892.8 274 895 Z M 425 855 C 425 857.2 423.2 859 421 859 C 418.8 859 417 857.2 417 855 C 417 852.8 418.8 851 421 851 C 423.2 851 425 852.8 425 855 Z M 386 855 C 386 857.2 384.2 859 382 859 C 379.8 859 378 857.2 378 855 C 378 852.8 379.8 851 382 851 C 384.2 851 386 852.8 386 855 Z M 537 855.4 C 537 857.6 535.2 859.4 533 859.4 C 530.8 859.4 529 857.6 529 855.4 C 529 853.18 530.8 851.4 533 851.4 C 535.2 851.4 537 853.18 537 855.4 Z M 274 854.5 C 274 856.7 272.2 858.5 270 858.5 C 267.8 858.5 266 856.7 266 854.5 C 266 852.3 267.8 850.5 270 850.5 C 272.2 850.5 274 852.3 274 854.5 Z" stroke="#666" stroke-width="2" fill="#fff" display="block"/>
    <path d="M 533 900.08 L 533 928 M 533 900.08 L 533 897.08 M 533 928 L 533 931 M 421 928 L 421 900.1 M 421 928 L 421 931 M 421 900.08 L 421 897.08 M 421 860.08 L 421 889.92 M 421 860.08 L 421 857.08 M 421 889.92 L 421 892.92 M 533 860.47 L 533 889.92 M 533 860.47 L 533 857.47 M 533 889.92 L 533 892.92 M 426.08 895 L 527.92 895 M 426.08 895 L 423.08 895 M 527.92 895 L 530.92 895 M 387.08 855 L 415.92 855 M 387.08 855 L 384.08 855 M 415.92 855 L 418.92 855 M 382 860.08 L 382 889.92 M 382 860.08 L 382 857.08 M 382 889.92 L 382 892.92 M 382 900.08 L 382 928 M 382 900.08 L 382 897.08 M 382 928 L 382 931 M 270 859.58 L 270 889.92 M 270 859.58 L 270 856.58 M 270 889.92 L 270 892.92 M 270 928 L 270 900.1 M 270 928 L 270 931 M 270 900.08 L 270 897.08 M 275.08 895 L 376.92 895 M 275.08 895 L 272.08 895 M 376.92 895 L 379.92 895" stroke="#000" stroke-width="2" fill="none" display="block"/>
    <path d="M 593 844.77 L 673 844.77 L 673 866 L 593 866 Z" stroke="#666" stroke-width="2" fill="#fff" display="block"/>
    <path d="M 592 855.4 L 538.08 855.4 M 592 855.4 L 595 855.4 M 538.08 855.4 L 535.08 855.4" stroke="#000" stroke-width="2" fill="none" display="block"/>
    <path d="M 709 855.4 C 709 857.6 707.2 859.4 705 859.4 C 702.8 859.4 701 857.6 701 855.4 C 701 853.18 702.8 851.4 705 851.4 C 707.2 851.4 709 853.18 709 855.4 Z" stroke="#666" stroke-width="2" fill="#fff" display="block"/>
    <path d="M 699.92 855.4 L 674 855.4 M 699.92 855.4 L 702.92 855.4 M 674 855.4 L 671 855.4" stroke="#000" stroke-width="2" fill="none" display="block"/>
    <path d="M 735 768 C 735 770.2 733.2 772 731 772 C 728.8 772 727 770.2 727 768 C 727 765.8 728.8 764 731 764 C 733.2 764 735 765.8 735 768 Z M 948 768 C 948 770.2 946.2 772 944 772 C 941.8 772 940 770.2 940 768 C 940 765.8 941.8 764 944 764 C 946.2 764 948 765.8 948 768 Z M 767 673 C 767 675.2 765.2 677 763 677 C 760.8 677 759 675.2 759 673 C 759 670.8 760.8 669 763 669 C 765.2 669 767 670.8 767 673 Z" stroke="#666" stroke-width="2" fill="#fff" display="block"/>
    <path d="M 731 773.08 L 705 850.3 M 731 773.08 L 731.96 770.24 M 705 850.3 L 704.04 853.15 M 763 678.08 L 731 762.92 M 763 678.08 L 764.06 675.28 M 731 762.92 L 729.94 765.72 M 736.08 768 L 938.92 768 M 736.08 768 L 733.08 768 M 938.92 768 L 941.92 768" stroke="#000" stroke-width="2" fill="none" display="block"/>
    <path d="M 930 673 C 930 675.2 928.2 677 926 677 C 923.8 677 922 675.2 922 673 C 922 670.8 923.8 669 926 669 C 928.2 669 930 670.8 930 673 Z" stroke="#666" stroke-width="2" fill="#fff" display="block"/>
    <path d="M 920.92 673 L 898.02 649.02 M 920.92 673 L 922.99 675.17 M 898.02 649.02 L 895.94 646.85 M 920.92 673 L 898.02 696.98 M 920.92 673 L 922.99 670.83 M 898.02 696.98 L 895.94 699.15 M 944 762.92 L 926 678.08 M 944 762.92 L 944.62 765.85 M 926 678.08 L 925.38 675.15" stroke="#000" stroke-width="2" fill="none" display="block"/>
    <path d="M 965 855 C 965 857.2 963.2 859 961 859 C 958.8 859 957 857.2 957 855 C 957 852.8 958.8 851 961 851 C 963.2 851 965 852.8 965 855 Z" stroke="#666" stroke-width="2" fill="#fff" display="block"/>
    <path d="M 944 773.08 L 961 849.92 M 944 773.08 L 943.35 770.15 M 961 849.92 L 961.65 852.85 M 533 860.47 L 533 889.92 M 533 860.47 L 533 857.47 M 533 889.92 L 533 892.92 M 1054.92 854.5 L 965.88 854.5 M 1054.92 854.5 L 1057.92 854.5 M 965.88 854.5 L 962.88 854.5 M 1117.5 358 L 1117.5 430 L 511.07 430 M 1117.5 358 L 1117.5 355 M 511.07 430 L 508.07 430 M 849.04 525 L 852.04 525" stroke="#000" stroke-width="2" fill="none" display="block"/>
    <path d="M 621 665.8 L 691 665.8 L 691 680.2 L 621 680.2 Z" stroke="#000" stroke-width="2" fill-opacity="0" display="block"/>
    <path d="M 688 673 C 688 675.2 686.2 677 684 677 C 681.8 677 680 675.2 680 673 C 680 670.8 681.8 669 684 669 C 686.2 669 688 670.8 688 673 Z" stroke="#000" stroke-width="2" fill-opacity="0" display="block"/>
    <path d="M 719 673 L 692 673 M 719 673 L 722 673 M 692 673 L 689 673 M 620 675 L 571 675 M 620 671 L 571 671 M 620 673 L 623 673 M 571 673 L 568 673" stroke="#000" stroke-width="2" fill="none" display="block"/>
    <path d="M 550 653 C 561.05 653 570 661.95 570 673 C 570 684.05 561.05 693 550 693 C 538.95 693 530 684.05 530 673 C 530 661.95 538.95 653 550 653 Z M 644 310 C 655.05 310 664 318.95 664 330 C 664 341.05 655.05 350 644 350 C 632.95 350 624 341.05 624 330 C 624 318.95 632.95 310 644 310 Z" stroke="#000" stroke-width="2" fill-opacity="0" display="block"/>
    <path d="M 719 332 L 665 332 M 719 328 L 665 328 M 719 330 L 722 330 M 665 330 L 662 330 M 1014 261.26 L 1014 317.38 L 793 317.38 M 1014 261.26 L 1014 258.26 M 793 317.38 L 790 317.38" stroke="#000" stroke-width="2" fill="none" display="block"/>
    <path d="M 922 325 L 922 345 L 937 335 Z M 937 335 L 939 335 Z M 939 335 L 954 325 L 954 345 Z" stroke="#000" fill="#fff" display="block"/>
    <path d="M 920 345 L 924.8 345 L 922.4 348.6 Z" stroke="#000" stroke-width="2" fill="#fff" display="block"/>
    <path d="M 1069 335.5 L 954.5 335.5 M 1069 335.5 L 1072 335.5 M 954.5 335.5 L 951.5 335.5" stroke="#000" stroke-width="2" fill="none" display="block"/>
    <path d="M 958.76 216.34 C 958.76 227.38 949.8 236.34 938.76 236.34 C 927.71 236.34 918.76 227.38 918.76 216.34 C 918.76 205.29 927.71 196.34 938.76 196.34 C 949.8 196.34 958.76 205.29 958.76 216.34 Z" stroke="#000" stroke-width="2" fill-opacity="0" display="block"/>
    <path d="M 936.76 388.5 L 936.76 236.34 M 940.76 388.5 L 940.76 236.34 M 938.76 388.5 L 938.76 391.5 M 565.8 401.33 L 544.8 406.25 M 544.8 406.25 L 565.8 411.17 M 565.8 411.17 L 544.8 416.07 M 544.8 416.08 L 565.8 421 M 565.8 421 L 544.8 421" stroke="#000" stroke-width="2" fill="none" display="block"/>
    <path d="M 537.58 400 L 537.58 330 L 572.42 330 L 572.42 400 Z" stroke="#000" stroke-width="3" fill="none" display="block"/>
    <path d="M 573 365 L 538 365 M 540 391.25 L 554.25 382.95" stroke="#000" stroke-width="2" fill="none" display="block"/>
    <path d="M 567.2 375.38 L 557.22 386.58 L 552.55 378.56 Z" stroke="#000" stroke-width="2" display="block"/>
    <path d="M 560.24 356.25 L 572 356.25" stroke="#000" stroke-width="2" fill="none" display="block"/>
    <path d="M 545.24 356.25 L 559.5 351.61 L 559.5 360.91 Z" stroke="#000" stroke-width="2" display="block"/>
    <path d="M 571 391.25 L 567.25 391.25" stroke="#000" stroke-width="3" fill="none" display="block"/>
    <path d="M 567.25 386.88 L 567.25 395.63" stroke="#000" stroke-width="2" fill="none" display="block"/>
    <path d="M 571 338.75 L 567.25 338.75" stroke="#000" stroke-width="3" fill="none" display="block"/>
    <path d="M 567.25 334.38 L 567.25 343.13" stroke="#000" stroke-width="2" fill="none" display="block"/>
    <path d="M 544.8 330 L 544.8 290 L 565.8 290 L 565.8 330 Z M 565.8 299.68 L 545.8 305" stroke="#000" stroke-width="3" fill="none" display="block"/>
    <path d="M 691.957 392.399 L 573.92 392 M 573.92 392 L 570.92 392" stroke="#000" stroke-width="2" fill="none" display="block"/>
    <path d="M 509.98 430 C 509.98 432.2 508.2 433.98 505.98 433.98 C 503.78 433.98 502 432.2 502 429.98 C 502 427.78 503.78 426 506 426 C 508.2 426 509.98 427.78 509.98 430 Z" stroke="#000" stroke-width="2" display="block"/>
    <path d="M 506 424.92 L 506 390 M 506 424.92 L 506 427.92 M 505 390 L 540 390 M 705.13 363.8 L 754.5 363.8 M 705.13 370.84 L 754.5 370.84 M 705.13 353.2 L 705.13 381.42 M 698.08 353.2 L 698.08 381.42 M 736.87 370.84 L 736.87 380.42 C 736.87 380.97 736.42 381.42 735.87 381.42 L 688.5 381.42 C 687.95 381.42 687.5 380.97 687.5 380.42 L 687.5 354.22 C 687.5 353.66 687.95 353.22 688.5 353.22 L 735.87 353.22 C 736.42 353.22 736.87 353.66 736.87 354.22 L 736.87 363.79" stroke="#000" stroke-width="2" fill="none" display="block"/>
    <path d="M 721.9 150.98 L 721.9 170.98 L 736.9 160.98 Z M 736.9 160.98 L 738.9 160.98 Z M 738.9 160.98 L 753.9 150.98 L 753.9 170.98 Z" stroke="#000" fill="#fff" display="block"/>
    <path d="M 751.9 170.98 L 756.7 170.98 L 754.3 174.58 Z" stroke="#000" stroke-width="2" fill="#fff" display="block"/>
    <path d="M 757.9 109.98 C 757.9 121.02 748.94 129.98 737.9 129.98 C 726.85 129.98 717.9 121.02 717.9 109.98 C 717.9 98.93 726.85 89.98 737.9 89.98 C 748.94 89.98 757.9 98.93 757.9 109.98 Z" stroke="#000" stroke-width="2" fill-opacity="0" display="block"/>
    <path d="M 739.9 130.98 L 739.9 160.48 M 735.9 130.98 L 735.9 160.48 M 737.9 130.98 L 737.9 127.98 M 737.9 160.48 L 737.9 163.48" stroke="#000" stroke-width="2" fill="none" display="block"/>
    <path d="M 539.04 150.86 L 539.04 170.86 L 554.04 160.86 Z M 554.04 160.86 L 556.04 160.86 Z M 556.04 160.86 L 571.04 150.86 L 571.04 170.86 Z" stroke="#000" fill="#fff" display="block"/>
    <path d="M 537.04 170.86 L 541.84 170.86 L 539.44 174.46 Z" stroke="#000" stroke-width="2" fill="#fff" display="block"/>
    <path d="M 575.04 109.86 C 575.04 120.91 566.09 129.86 555.04 129.86 C 543.99 129.86 535.04 120.91 535.04 109.86 C 535.04 98.82 543.99 89.86 555.04 89.86 C 566.09 89.86 575.04 98.82 575.04 109.86 Z" stroke="#000" stroke-width="2" fill-opacity="0" display="block"/>
    <path d="M 557.04 130.86 L 557.04 160.36 M 553.04 130.86 L 553.04 160.36 M 555.04 130.86 L 555.04 127.86 M 555.04 160.36 L 555.04 163.36 M 538.54 160.86 L 403.743 160.86 L 344.72 160.86 M 538.54 160.86 L 541.54 160.86 M 344.7 160.86 L 341.7 160.86" stroke="#000" stroke-width="2" fill="none" display="block"/>
    <path d="M 962 558 L 994 558 L 994 590 L 962 590 Z" stroke="#000" stroke-width="2" fill="#fff" display="block"/>
    <path d="M 949 551 L 990 551 L 990 583 L 949 583 Z" fill="none" display="block"/>
    <path d="M 962.48 589.52 L 994 558" stroke="#000" stroke-width="2" fill="none" display="block"/>
    <path d="M 966.02 567 L 1007.02 567 L 1007.02 599 L 966.02 599 Z" fill="none" display="block"/>
    <path d="M 894.86 573.15 C 894.86 575.35 893.08 577.15 890.86 577.15 C 888.66 577.15 886.88 575.35 886.88 573.15 C 886.88 570.95 888.66 569.15 890.88 569.15 C 893.08 569.15 894.86 570.95 894.86 573.15 Z" stroke="#000" stroke-width="2" display="block"/>
    <path d="M 895.94 573.16 L 961 573.16 M 895.94 573.16 L 892.94 573.16 M 961 573.16 L 964 573.16" stroke="#000" stroke-width="2" fill="none" display="block"/>
    <path d="M 670.13 643.12 C 670.13 645.19 668.53 646.86 666.56 646.86 C 664.59 646.86 663 645.19 663 643.12 C 663 641.05 664.6 639.37 666.56 639.37 C 668.54 639.37 670.13 641.05 670.13 643.12 Z M 713 643.12 C 713 645.19 711.4 646.86 709.42 646.86 C 707.45 646.86 705.86 645.19 705.86 643.12 C 705.86 641.05 707.46 639.37 709.42 639.37 C 711.39 639.37 712.99 641.05 712.99 643.12 Z" stroke="#000" stroke-width="2" fill="#fff" display="block"/>
    <path d="M 666.57 638.3 L 709.43 633 M 666.57 638.3 L 663.59 638.66" stroke="#000" stroke-width="2" fill="none" display="block"/>
    <path d="M 689.87 635.4 L 689.87 663" fill="none" display="block"/>
    <path d="M 689.87 635.4 L 689.87 644.6 M 689.87 653.8 L 689.87 663" stroke="#000" stroke-width="2" fill="none" display="block"/>
    <path d="M 1271 93 C 1271 102.94 1262.05 111 1251 111 C 1239.95 111 1231 102.94 1231 93 C 1231 83.06 1239.95 75 1251 75 C 1262.05 75 1271 83.06 1271 93 Z" stroke="#000" stroke-width="2" fill-opacity="0" display="block"/>
    <path d="M 1240.7 76.37 L 1240.7 109.83 M 1261.3 76.42 L 1261.3 109.88 M 1240.7 92.62 L 1260.7 92.62" stroke="#000" stroke-width="2" fill="none" display="block"/>
    <path d="M 1254.98 161 C 1254.98 163.2 1253.2 164.98 1250.98 164.98 C 1248.78 164.98 1247 163.2 1247 160.98 C 1247 158.78 1248.78 157 1251 157 C 1253.2 157 1254.98 158.78 1254.98 161 Z" stroke="#000" stroke-width="2" display="block"/>
    <path d="M 1251 112 L 1251 155.92 M 1251 112 L 1251 109 M 1251 155.92 L 1251 158.92" stroke="#000" stroke-width="2" fill="none" display="block"/>
    <path d="M 360 92 C 360 101.94 351.05 110 340 110 C 328.95 110 320 101.94 320 92 C 320 82.06 328.95 74 340 74 C 351.05 74 360 82.06 360 92 Z" stroke="#000" stroke-width="2" fill-opacity="0" display="block"/>
    <path d="M 329.7 75.37 L 329.7 108.83 M 350.3 75.42 L 350.3 108.88 M 329.7 91.62 L 349.7 91.62" stroke="#000" stroke-width="2" fill="none" display="block"/>
    <path d="M 343.98 160 C 343.98 162.2 342.2 163.98 339.98 163.98 C 337.78 163.98 336 162.2 336 159.98 C 336 157.78 337.78 156 340 156 C 342.2 156 343.98 157.78 343.98 160 Z" stroke="#000" stroke-width="2" display="block"/>
    <path d="M 340 111 L 340 154.92 M 340 111 L 340 108 M 340 154.92 L 340 157.92" stroke="#000" stroke-width="2" fill="none" display="block"/>
    <path d="M 923 379 L 923 399 L 938 389 Z M 938 389 L 940 389 Z M 940 389 L 955 379 L 955 399 Z" stroke="#000" fill="#fff" display="block"/>
    <path d="M 953 399 L 957.8 399 L 955.4 402.6 Z" stroke="#000" stroke-width="2" fill="#fff" display="block"/>
    <path d="M 905.06 335 L 921.5 335 M 905.06 335 L 902.06 335 M 921.5 335 L 924.5 335 M 955.5 389.05 L 1015 389.05 L 1015 460 L 809.04 460 L 809.04 506.2 L 849.04 506.2 M 955.5 389.05 L 952.5 389.05 M 849.04 506.2 L 852.04 506.2 M 478.18 299.53 L 457.18 304.45 M 457.18 304.45 L 478.18 309.37 M 478.18 309.37 L 457.18 314.27 M 457.18 314.28 L 478.18 319.2 M 478.18 319.2 L 457.18 319.2" stroke="#000" stroke-width="2" fill="none" display="block"/>
    <path d="M 449.97 298.2 L 449.97 228.2 L 484.8 228.2 L 484.8 298.2 Z" stroke="#000" stroke-width="3" fill="none" display="block"/>
    <path d="M 485.4 263.2 L 450.4 263.2 M 452.4 289.45 L 466.64 281.15" stroke="#000" stroke-width="2" fill="none" display="block"/>
    <path d="M 479.6 273.58 L 469.6 284.78 L 464.93 276.76 Z" stroke="#000" stroke-width="2" display="block"/>
    <path d="M 472.62 254.45 L 484.39 254.45" stroke="#000" stroke-width="2" fill="none" display="block"/>
    <path d="M 457.62 254.45 L 471.89 249.81 L 471.89 259.09 Z" stroke="#000" stroke-width="2" display="block"/>
    <path d="M 483.4 289.45 L 479.64 289.45" stroke="#000" stroke-width="3" fill="none" display="block"/>
    <path d="M 479.64 285.07 L 479.64 293.82" stroke="#000" stroke-width="2" fill="none" display="block"/>
    <path d="M 483.4 236.95 L 479.64 236.95" stroke="#000" stroke-width="3" fill="none" display="block"/>
    <path d="M 479.64 232.57 L 479.64 241.32" stroke="#000" stroke-width="2" fill="none" display="block"/>
    <path d="M 457.18 228.2 L 457.18 188.2 L 478.18 188.2 L 478.18 228.2 Z M 478.18 197.88 L 458.18 203.2" stroke="#000" stroke-width="3" fill="none" display="block"/>
    <path d="M 660.98 260 C 660.98 262.2 659.2 263.98 656.98 263.98 C 654.78 263.98 653 262.2 653 259.98 C 653 257.78 654.78 256 657 256 C 659.2 256 660.98 257.78 660.98 260 Z" stroke="#000" stroke-width="2" display="block"/>
    <path d="M 489 290 L 515 290 L 515 260.05 L 651.94 260.05 M 651.94 260.05 L 654.94 260.05 M 437.24 290 L 448.47 290" stroke="#000" stroke-width="2" fill="none" display="block"/>
    <path d="M 422.24 290 L 436.5 285.36 L 436.5 294.64 Z" stroke="#000" stroke-width="2" fill="#fff" display="block"/>
    <path d="M 448.47 290 L 451.47 290" stroke="#000" stroke-width="2" fill="none" display="block"/>
    <line style="stroke: rgb(0, 0, 0); stroke-width: 2px;" x1="753.911" y1="160.169" x2="1249.643" y2="161.143" display="block"/>
    <line style="stroke: rgb(0, 0, 0); stroke-width: 2px;" x1="691.669" y1="392.754" x2="691.669" y2="381.195" display="block"/>
    <defs>
      <path d="M160-131c35 5 61 23 61 61C221 17 115-2 30 0v-248c76 3 177-17 177 60 0 33-19 50-47 57zm-97-11c50-1 110 9 110-42 0-47-63-36-110-37v79zm0 115c55-2 124 14 124-45 0-56-70-42-124-44v89" id="s"/>
      <path d="M114-163C36-179 61-72 57 0H25l-1-190h30c1 12-1 29 2 39 6-27 23-49 58-41v29" id="t"/>
      <path d="M100-194c63 0 86 42 84 106H49c0 40 14 67 53 68 26 1 43-12 49-29l28 8c-11 28-37 45-77 45C44 4 14-33 15-96c1-61 26-98 85-98zm52 81c6-60-76-77-97-28-3 7-6 17-6 28h103" id="u"/>
      <path d="M210-169c-67 3-38 105-44 169h-31v-121c0-29-5-50-35-48C34-165 62-65 56 0H25l-1-190h30c1 10-1 24 2 32 10-44 99-50 107 0 11-21 27-35 58-36 85-2 47 119 55 194h-31v-121c0-29-5-49-35-48" id="v"/>
      <path d="M135-143c-3-34-86-38-87 0 15 53 115 12 119 90S17 21 10-45l28-5c4 36 97 45 98 0-10-56-113-15-118-90-4-57 82-63 122-42 12 7 21 19 24 35" id="w"/>
      <g id="a">
        <path d="M 8 -6.55 C 9.75 -6.3 11.05 -5.4 11.05 -3.5 C 11.05 0.85 5.75 -0.1 1.5 0 L 1.5 -12.4 C 5.3 -12.25 10.35 -13.25 10.35 -9.4 C 10.35 -7.75 9.4 -6.9 8 -6.55 Z M 3.15 -7.1 C 5.65 -7.15 8.65 -6.65 8.65 -9.2 C 8.65 -11.55 5.5 -11 3.15 -11.05 L 3.15 -7.1 Z M 3.15 -1.35 C 5.9 -1.45 9.35 -0.65 9.35 -3.6 C 9.35 -6.4 5.85 -5.7 3.15 -5.8 L 3.15 -1.35"/>
        <path d="M 17.7 -8.15 C 13.8 -8.95 15.05 -3.6 14.85 0 L 13.25 0 L 13.2 -9.5 L 14.7 -9.5 C 14.75 -8.9 14.65 -8.05 14.8 -7.55 C 15.1 -8.9 15.95 -10 17.7 -9.6 L 17.7 -8.15"/>
        <path d="M 22.95 -9.7 C 26.1 -9.7 27.25 -7.6 27.15 -4.4 L 20.4 -4.4 C 20.4 -2.4 21.1 -1.05 23.05 -1 C 24.35 -0.95 25.2 -1.6 25.5 -2.45 L 26.9 -2.05 C 26.35 -0.65 25.05 0.2 23.05 0.2 C 20.15 0.2 18.65 -1.65 18.7 -4.8 C 18.75 -7.85 20 -9.7 22.95 -9.7 Z M 25.55 -5.65 C 25.85 -8.65 21.75 -9.5 20.7 -7.05 C 20.55 -6.7 20.4 -6.2 20.4 -5.65 L 25.55 -5.65"/>
        <path d="M 38.45 -8.45 C 35.1 -8.3 36.55 -3.2 36.25 0 L 34.7 0 L 34.7 -6.05 C 34.7 -7.5 34.45 -8.55 32.95 -8.45 C 29.65 -8.25 31.05 -3.25 30.75 0 L 29.2 0 L 29.15 -9.5 L 30.65 -9.5 C 30.7 -9 30.6 -8.3 30.75 -7.9 C 31.25 -10.1 35.7 -10.4 36.1 -7.9 C 36.65 -8.95 37.45 -9.65 39 -9.7 C 43.25 -9.8 41.35 -3.75 41.75 0 L 40.2 0 L 40.2 -6.05 C 40.2 -7.5 39.95 -8.5 38.45 -8.45"/>
        <path d="M 49.65 -7.15 C 49.5 -8.85 45.35 -9.05 45.3 -7.15 C 46.05 -4.5 51.05 -6.55 51.25 -2.65 C 51.45 1.25 43.75 1.05 43.4 -2.25 L 44.8 -2.5 C 45 -0.7 49.65 -0.25 49.7 -2.5 C 49.2 -5.3 44.05 -3.25 43.8 -7 C 43.6 -9.85 47.9 -10.15 49.9 -9.1 C 50.5 -8.75 50.95 -8.15 51.1 -7.35"/>
        <path d="M 56.9 -9.7 C 60.05 -9.7 61.2 -7.6 61.1 -4.4 L 54.35 -4.4 C 54.35 -2.4 55.05 -1.05 57 -1 C 58.3 -0.95 59.15 -1.6 59.45 -2.45 L 60.85 -2.05 C 60.3 -0.65 59 0.2 57 0.2 C 54.1 0.2 52.6 -1.65 52.65 -4.8 C 52.7 -7.85 53.95 -9.7 56.9 -9.7 Z M 59.5 -5.65 C 59.8 -8.65 55.7 -9.5 54.65 -7.05 C 54.5 -6.7 54.35 -6.2 54.35 -5.65 L 59.5 -5.65"/>
      </g>
      <path d="M141-36C126-15 110 5 73 4 37 3 15-17 15-53c-1-64 63-63 125-63 3-35-9-54-41-54-24 1-41 7-42 31l-33-3c5-37 33-52 76-52 45 0 72 20 72 64v82c-1 20 7 32 28 27v20c-31 9-61-2-59-35zM48-53c0 20 12 33 32 33 41-3 63-29 60-74-43 2-92-5-92 41" id="x"/>
      <path d="M84 4C-5 8 30-112 23-190h32v120c0 31 7 50 39 49 72-2 45-101 50-169h31l1 190h-30c-1-10 1-25-2-33-11 22-28 36-60 37" id="y"/>
      <g id="b">
        <path d="M 7.05 -1.8 C 6.3 -0.75 5.5 0.25 3.65 0.2 C 1.85 0.15 0.75 -0.85 0.75 -2.65 C 0.7 -5.85 3.9 -5.8 7 -5.8 C 7.15 -7.55 6.55 -8.5 4.95 -8.5 C 3.75 -8.45 2.9 -8.15 2.85 -6.95 L 1.2 -7.1 C 1.45 -8.95 2.85 -9.7 5 -9.7 C 7.25 -9.7 8.6 -8.7 8.6 -6.5 L 8.6 -2.4 C 8.55 -1.4 8.95 -0.8 10 -1.05 L 10 -0.05 C 8.45 0.4 6.95 -0.15 7.05 -1.8 Z M 2.4 -2.65 C 2.4 -1.65 3 -1 4 -1 C 6.05 -1.15 7.15 -2.45 7 -4.7 C 4.85 -4.6 2.4 -4.95 2.4 -2.65"/>
        <path d="M 14.2 0.2 C 9.75 0.4 11.5 -5.6 11.15 -9.5 L 12.75 -9.5 L 12.75 -3.5 C 12.75 -1.95 13.1 -1 14.7 -1.05 C 18.3 -1.15 16.95 -6.1 17.2 -9.5 L 18.75 -9.5 L 18.8 0 L 17.3 0 C 17.25 -0.5 17.35 -1.25 17.2 -1.65 C 16.65 -0.55 15.8 0.15 14.2 0.2"/>
        <path d="M 26.75 -7.15 C 26.6 -8.85 22.45 -9.05 22.4 -7.15 C 23.15 -4.5 28.15 -6.55 28.35 -2.65 C 28.55 1.25 20.85 1.05 20.5 -2.25 L 21.9 -2.5 C 22.1 -0.7 26.75 -0.25 26.8 -2.5 C 26.3 -5.3 21.15 -3.25 20.9 -7 C 20.7 -9.85 25 -10.15 27 -9.1 C 27.6 -8.75 28.05 -8.15 28.2 -7.35"/>
      </g>
      <path d="M59-47c-2 24 18 29 38 22v24C64 9 27 4 27-40v-127H5v-23h24l9-43h21v43h35v23H59v120" id="z"/>
      <g id="c">
        <path d="M 8 -6.55 C 9.75 -6.3 11.05 -5.4 11.05 -3.5 C 11.05 0.85 5.75 -0.1 1.5 0 L 1.5 -12.4 C 5.3 -12.25 10.35 -13.25 10.35 -9.4 C 10.35 -7.75 9.4 -6.9 8 -6.55 Z M 3.15 -7.1 C 5.65 -7.15 8.65 -6.65 8.65 -9.2 C 8.65 -11.55 5.5 -11 3.15 -11.05 L 3.15 -7.1 Z M 3.15 -1.35 C 5.9 -1.45 9.35 -0.65 9.35 -3.6 C 9.35 -6.4 5.85 -5.7 3.15 -5.8 L 3.15 -1.35"/>
        <path d="M 17.7 -8.15 C 13.8 -8.95 15.05 -3.6 14.85 0 L 13.25 0 L 13.2 -9.5 L 14.7 -9.5 C 14.75 -8.9 14.65 -8.05 14.8 -7.55 C 15.1 -8.9 15.95 -10 17.7 -9.6 L 17.7 -8.15"/>
        <path d="M 22.95 -9.7 C 26.1 -9.7 27.25 -7.6 27.15 -4.4 L 20.4 -4.4 C 20.4 -2.4 21.1 -1.05 23.05 -1 C 24.35 -0.95 25.2 -1.6 25.5 -2.45 L 26.9 -2.05 C 26.35 -0.65 25.05 0.2 23.05 0.2 C 20.15 0.2 18.65 -1.65 18.7 -4.8 C 18.75 -7.85 20 -9.7 22.95 -9.7 Z M 25.55 -5.65 C 25.85 -8.65 21.75 -9.5 20.7 -7.05 C 20.55 -6.7 20.4 -6.2 20.4 -5.65 L 25.55 -5.65"/>
        <path d="M 38.45 -8.45 C 35.1 -8.3 36.55 -3.2 36.25 0 L 34.7 0 L 34.7 -6.05 C 34.7 -7.5 34.45 -8.55 32.95 -8.45 C 29.65 -8.25 31.05 -3.25 30.75 0 L 29.2 0 L 29.15 -9.5 L 30.65 -9.5 C 30.7 -9 30.6 -8.3 30.75 -7.9 C 31.25 -10.1 35.7 -10.4 36.1 -7.9 C 36.65 -8.95 37.45 -9.65 39 -9.7 C 43.25 -9.8 41.35 -3.75 41.75 0 L 40.2 0 L 40.2 -6.05 C 40.2 -7.5 39.95 -8.5 38.45 -8.45"/>
        <path d="M 49.65 -7.15 C 49.5 -8.85 45.35 -9.05 45.3 -7.15 C 46.05 -4.5 51.05 -6.55 51.25 -2.65 C 51.45 1.25 43.75 1.05 43.4 -2.25 L 44.8 -2.5 C 45 -0.7 49.65 -0.25 49.7 -2.5 C 49.2 -5.3 44.05 -3.25 43.8 -7 C 43.6 -9.85 47.9 -10.15 49.9 -9.1 C 50.5 -8.75 50.95 -8.15 51.1 -7.35"/>
        <path d="M 58.95 -1.8 C 58.2 -0.75 57.4 0.25 55.55 0.2 C 53.75 0.15 52.65 -0.85 52.65 -2.65 C 52.6 -5.85 55.8 -5.8 58.9 -5.8 C 59.05 -7.55 58.45 -8.5 56.85 -8.5 C 55.65 -8.45 54.8 -8.15 54.75 -6.95 L 53.1 -7.1 C 53.35 -8.95 54.75 -9.7 56.9 -9.7 C 59.15 -9.7 60.5 -8.7 60.5 -6.5 L 60.5 -2.4 C 60.45 -1.4 60.85 -0.8 61.9 -1.05 L 61.9 -0.05 C 60.35 0.4 58.85 -0.15 58.95 -1.8 Z M 54.3 -2.65 C 54.3 -1.65 54.9 -1 55.9 -1 C 57.95 -1.15 59.05 -2.45 58.9 -4.7 C 56.75 -4.6 54.3 -4.95 54.3 -2.65"/>
        <path d="M 67.6 -8.15 C 63.7 -8.95 64.95 -3.6 64.75 0 L 63.15 0 L 63.1 -9.5 L 64.6 -9.5 C 64.65 -8.9 64.55 -8.05 64.7 -7.55 C 65 -8.9 65.85 -10 67.6 -9.6 L 67.6 -8.15"/>
        <path d="M 70.8 -2.35 C 70.7 -1.15 71.7 -0.9 72.7 -1.25 L 72.7 -0.05 C 71.05 0.45 69.2 0.2 69.2 -2 L 69.2 -8.35 L 68.1 -8.35 L 68.1 -9.5 L 69.3 -9.5 L 69.75 -11.65 L 70.8 -11.65 L 70.8 -9.5 L 72.55 -9.5 L 72.55 -8.35 L 70.8 -8.35 L 70.8 -2.35"/>
      </g>
      <path d="M30 0v-248h33v221h125V0H30" id="A"/>
      <path d="M115-194c53 0 69 39 70 98 0 66-23 100-70 100C84 3 66-7 56-30L54 0H23l1-261h32v101c10-23 28-34 59-34zm-8 174c40 0 45-34 45-75 0-40-5-75-45-74-42 0-51 32-51 76 0 43 10 73 51 73" id="B"/>
      <path d="M117-194c89-4 53 116 60 194h-32v-121c0-31-8-49-39-48C34-167 62-67 57 0H25l-1-190h30c1 10-1 24 2 32 11-22 29-35 61-36" id="C"/>
      <path d="M177-190C167-65 218 103 67 71c-23-6-38-20-44-43l32-5c15 47 100 32 89-28v-30C133-14 115 1 83 1 29 1 15-40 15-95c0-56 16-97 71-98 29-1 48 16 59 35 1-10 0-23 2-32h30zM94-22c36 0 50-32 50-73 0-42-14-75-50-75-39 0-46 34-46 75s6 73 46 73" id="D"/>
      <g id="d">
        <g transform="matrix(0.05, 0, 0, 0.05, 0, 0)">
          <path d="M 8 -6.55 C 9.75 -6.3 11.05 -5.4 11.05 -3.5 C 11.05 0.85 5.75 -0.1 1.5 0 L 1.5 -12.4 C 5.3 -12.25 10.35 -13.25 10.35 -9.4 C 10.35 -7.75 9.4 -6.9 8 -6.55 Z M 3.15 -7.1 C 5.65 -7.15 8.65 -6.65 8.65 -9.2 C 8.65 -11.55 5.5 -11 3.15 -11.05 L 3.15 -7.1 Z M 3.15 -1.35 C 5.9 -1.45 9.35 -0.65 9.35 -3.6 C 9.35 -6.4 5.85 -5.7 3.15 -5.8 L 3.15 -1.35"/>
          <path d="M 17.7 -8.15 C 13.8 -8.95 15.05 -3.6 14.85 0 L 13.25 0 L 13.2 -9.5 L 14.7 -9.5 C 14.75 -8.9 14.65 -8.05 14.8 -7.55 C 15.1 -8.9 15.95 -10 17.7 -9.6 L 17.7 -8.15"/>
          <path d="M 22.95 -9.7 C 26.1 -9.7 27.25 -7.6 27.15 -4.4 L 20.4 -4.4 C 20.4 -2.4 21.1 -1.05 23.05 -1 C 24.35 -0.95 25.2 -1.6 25.5 -2.45 L 26.9 -2.05 C 26.35 -0.65 25.05 0.2 23.05 0.2 C 20.15 0.2 18.65 -1.65 18.7 -4.8 C 18.75 -7.85 20 -9.7 22.95 -9.7 Z M 25.55 -5.65 C 25.85 -8.65 21.75 -9.5 20.7 -7.05 C 20.55 -6.7 20.4 -6.2 20.4 -5.65 L 25.55 -5.65"/>
          <path d="M 38.45 -8.45 C 35.1 -8.3 36.55 -3.2 36.25 0 L 34.7 0 L 34.7 -6.05 C 34.7 -7.5 34.45 -8.55 32.95 -8.45 C 29.65 -8.25 31.05 -3.25 30.75 0 L 29.2 0 L 29.15 -9.5 L 30.65 -9.5 C 30.7 -9 30.6 -8.3 30.75 -7.9 C 31.25 -10.1 35.7 -10.4 36.1 -7.9 C 36.65 -8.95 37.45 -9.65 39 -9.7 C 43.25 -9.8 41.35 -3.75 41.75 0 L 40.2 0 L 40.2 -6.05 C 40.2 -7.5 39.95 -8.5 38.45 -8.45"/>
          <path d="M 49.65 -7.15 C 49.5 -8.85 45.35 -9.05 45.3 -7.15 C 46.05 -4.5 51.05 -6.55 51.25 -2.65 C 51.45 1.25 43.75 1.05 43.4 -2.25 L 44.8 -2.5 C 45 -0.7 49.65 -0.25 49.7 -2.5 C 49.2 -5.3 44.05 -3.25 43.8 -7 C 43.6 -9.85 47.9 -10.15 49.9 -9.1 C 50.5 -8.75 50.95 -8.15 51.1 -7.35"/>
          <path d="M 56.9 -9.7 C 60.05 -9.7 61.2 -7.6 61.1 -4.4 L 54.35 -4.4 C 54.35 -2.4 55.05 -1.05 57 -1 C 58.3 -0.95 59.15 -1.6 59.45 -2.45 L 60.85 -2.05 C 60.3 -0.65 59 0.2 57 0.2 C 54.1 0.2 52.6 -1.65 52.65 -4.8 C 52.7 -7.85 53.95 -9.7 56.9 -9.7 Z M 59.5 -5.65 C 59.8 -8.65 55.7 -9.5 54.65 -7.05 C 54.5 -6.7 54.35 -6.2 54.35 -5.65 L 59.5 -5.65"/>
        </g>
        <path d="M 17.05 -1.8 C 16.3 -0.75 15.5 0.25 13.65 0.2 C 11.85 0.15 10.75 -0.85 10.75 -2.65 C 10.7 -5.85 13.9 -5.8 17 -5.8 C 17.15 -7.55 16.55 -8.5 14.95 -8.5 C 13.75 -8.45 12.9 -8.15 12.85 -6.95 L 11.2 -7.1 C 11.45 -8.95 12.85 -9.7 15 -9.7 C 17.25 -9.7 18.6 -8.7 18.6 -6.5 L 18.6 -2.4 C 18.55 -1.4 18.95 -0.8 20 -1.05 L 20 -0.05 C 18.45 0.4 16.95 -0.15 17.05 -1.8 Z M 12.4 -2.65 C 12.4 -1.65 13 -1 14 -1 C 16.05 -1.15 17.15 -2.45 17 -4.7 C 14.85 -4.6 12.4 -4.95 12.4 -2.65"/>
        <path d="M 26.75 -7.15 C 26.6 -8.85 22.45 -9.05 22.4 -7.15 C 23.15 -4.5 28.15 -6.55 28.35 -2.65 C 28.55 1.25 20.85 1.05 20.5 -2.25 L 21.9 -2.5 C 22.1 -0.7 26.75 -0.25 26.8 -2.5 C 26.3 -5.3 21.15 -3.25 20.9 -7 C 20.7 -9.85 25 -10.15 27 -9.1 C 27.6 -8.75 28.05 -8.15 28.2 -7.35"/>
        <path d="M 31.95 -2.35 C 31.85 -1.15 32.85 -0.9 33.85 -1.25 L 33.85 -0.05 C 32.2 0.45 30.35 0.2 30.35 -2 L 30.35 -8.35 L 29.25 -8.35 L 29.25 -9.5 L 30.45 -9.5 L 30.9 -11.65 L 31.95 -11.65 L 31.95 -9.5 L 33.7 -9.5 L 33.7 -8.35 L 31.95 -8.35 L 31.95 -2.35"/>
        <path d="M 41.05 -1.8 C 40.3 -0.75 39.5 0.25 37.65 0.2 C 35.85 0.15 34.75 -0.85 34.75 -2.65 C 34.7 -5.85 37.9 -5.8 41 -5.8 C 41.15 -7.55 40.55 -8.5 38.95 -8.5 C 37.75 -8.45 36.9 -8.15 36.85 -6.95 L 35.2 -7.1 C 35.45 -8.95 36.85 -9.7 39 -9.7 C 41.25 -9.7 42.6 -8.7 42.6 -6.5 L 42.6 -2.4 C 42.55 -1.4 42.95 -0.8 44 -1.05 L 44 -0.05 C 42.45 0.4 40.95 -0.15 41.05 -1.8 Z M 36.4 -2.65 C 36.4 -1.65 37 -1 38 -1 C 40.05 -1.15 41.15 -2.45 41 -4.7 C 38.85 -4.6 36.4 -4.95 36.4 -2.65"/>
        <g transform="matrix(0.05, 0, 0, 0.05, 44, 0)">
          <path d="M 7.05 -1.8 C 6.3 -0.75 5.5 0.25 3.65 0.2 C 1.85 0.15 0.75 -0.85 0.75 -2.65 C 0.7 -5.85 3.9 -5.8 7 -5.8 C 7.15 -7.55 6.55 -8.5 4.95 -8.5 C 3.75 -8.45 2.9 -8.15 2.85 -6.95 L 1.2 -7.1 C 1.45 -8.95 2.85 -9.7 5 -9.7 C 7.25 -9.7 8.6 -8.7 8.6 -6.5 L 8.6 -2.4 C 8.55 -1.4 8.95 -0.8 10 -1.05 L 10 -0.05 C 8.45 0.4 6.95 -0.15 7.05 -1.8 Z M 2.4 -2.65 C 2.4 -1.65 3 -1 4 -1 C 6.05 -1.15 7.15 -2.45 7 -4.7 C 4.85 -4.6 2.4 -4.95 2.4 -2.65"/>
          <path d="M 14.2 0.2 C 9.75 0.4 11.5 -5.6 11.15 -9.5 L 12.75 -9.5 L 12.75 -3.5 C 12.75 -1.95 13.1 -1 14.7 -1.05 C 18.3 -1.15 16.95 -6.1 17.2 -9.5 L 18.75 -9.5 L 18.8 0 L 17.3 0 C 17.25 -0.5 17.35 -1.25 17.2 -1.65 C 16.65 -0.55 15.8 0.15 14.2 0.2"/>
          <path d="M 26.75 -7.15 C 26.6 -8.85 22.45 -9.05 22.4 -7.15 C 23.15 -4.5 28.15 -6.55 28.35 -2.65 C 28.55 1.25 20.85 1.05 20.5 -2.25 L 21.9 -2.5 C 22.1 -0.7 26.75 -0.25 26.8 -2.5 C 26.3 -5.3 21.15 -3.25 20.9 -7 C 20.7 -9.85 25 -10.15 27 -9.1 C 27.6 -8.75 28.05 -8.15 28.2 -7.35"/>
        </g>
        <g transform="matrix(0.05, 0, 0, 0.05, 54, 0)">
          <path d="M 7.05 -1.8 C 6.3 -0.75 5.5 0.25 3.65 0.2 C 1.85 0.15 0.75 -0.85 0.75 -2.65 C 0.7 -5.85 3.9 -5.8 7 -5.8 C 7.15 -7.55 6.55 -8.5 4.95 -8.5 C 3.75 -8.45 2.9 -8.15 2.85 -6.95 L 1.2 -7.1 C 1.45 -8.95 2.85 -9.7 5 -9.7 C 7.25 -9.7 8.6 -8.7 8.6 -6.5 L 8.6 -2.4 C 8.55 -1.4 8.95 -0.8 10 -1.05 L 10 -0.05 C 8.45 0.4 6.95 -0.15 7.05 -1.8 Z M 2.4 -2.65 C 2.4 -1.65 3 -1 4 -1 C 6.05 -1.15 7.15 -2.45 7 -4.7 C 4.85 -4.6 2.4 -4.95 2.4 -2.65"/>
          <path d="M 14.2 0.2 C 9.75 0.4 11.5 -5.6 11.15 -9.5 L 12.75 -9.5 L 12.75 -3.5 C 12.75 -1.95 13.1 -1 14.7 -1.05 C 18.3 -1.15 16.95 -6.1 17.2 -9.5 L 18.75 -9.5 L 18.8 0 L 17.3 0 C 17.25 -0.5 17.35 -1.25 17.2 -1.65 C 16.65 -0.55 15.8 0.15 14.2 0.2"/>
          <path d="M 26.75 -7.15 C 26.6 -8.85 22.45 -9.05 22.4 -7.15 C 23.15 -4.5 28.15 -6.55 28.35 -2.65 C 28.55 1.25 20.85 1.05 20.5 -2.25 L 21.9 -2.5 C 22.1 -0.7 26.75 -0.25 26.8 -2.5 C 26.3 -5.3 21.15 -3.25 20.9 -7 C 20.7 -9.85 25 -10.15 27 -9.1 C 27.6 -8.75 28.05 -8.15 28.2 -7.35"/>
        </g>
        <path d="M 69.7 -8.15 C 65.8 -8.95 67.05 -3.6 66.85 0 L 65.25 0 L 65.2 -9.5 L 66.7 -9.5 C 66.75 -8.9 66.65 -8.05 66.8 -7.55 C 67.1 -8.9 67.95 -10 69.7 -9.6 L 69.7 -8.15"/>
        <path d="M 74.95 -9.7 C 78.1 -9.7 79.25 -7.6 79.15 -4.4 L 72.4 -4.4 C 72.4 -2.4 73.1 -1.05 75.05 -1 C 76.35 -0.95 77.2 -1.6 77.5 -2.45 L 78.9 -2.05 C 78.35 -0.65 77.05 0.2 75.05 0.2 C 72.15 0.2 70.65 -1.65 70.7 -4.8 C 70.75 -7.85 72 -9.7 74.95 -9.7 Z M 77.55 -5.65 C 77.85 -8.65 73.75 -9.5 72.7 -7.05 C 72.55 -6.7 72.4 -6.2 72.4 -5.65 L 77.55 -5.65"/>
        <path d="M 90.45 -8.45 C 87.1 -8.3 88.55 -3.2 88.25 0 L 86.7 0 L 86.7 -6.05 C 86.7 -7.5 86.45 -8.55 84.95 -8.45 C 81.65 -8.25 83.05 -3.25 82.75 0 L 81.2 0 L 81.15 -9.5 L 82.65 -9.5 C 82.7 -9 82.6 -8.3 82.75 -7.9 C 83.25 -10.1 87.7 -10.4 88.1 -7.9 C 88.65 -8.95 89.45 -9.65 91 -9.7 C 95.25 -9.8 93.35 -3.75 93.75 0 L 92.2 0 L 92.2 -6.05 C 92.2 -7.5 91.95 -8.5 90.45 -8.45"/>
        <path d="M 101.65 -7.15 C 101.5 -8.85 97.35 -9.05 97.3 -7.15 C 98.05 -4.5 103.05 -6.55 103.25 -2.65 C 103.45 1.25 95.75 1.05 95.4 -2.25 L 96.8 -2.5 C 97 -0.7 101.65 -0.25 101.7 -2.5 C 101.2 -5.3 96.05 -3.25 95.8 -7 C 95.6 -9.85 99.9 -10.15 101.9 -9.1 C 102.5 -8.75 102.95 -8.15 103.1 -7.35"/>
        <path d="M 108.1 0.2 C 103.65 0.4 105.4 -5.6 105.05 -9.5 L 106.65 -9.5 L 106.65 -3.5 C 106.65 -1.95 107 -1 108.6 -1.05 C 112.2 -1.15 110.85 -6.1 111.1 -9.5 L 112.65 -9.5 L 112.7 0 L 111.2 0 C 111.15 -0.5 111.25 -1.25 111.1 -1.65 C 110.55 -0.55 109.7 0.15 108.1 0.2"/>
        <g transform="matrix(0.05, 0, 0, 0.05, 113.9, 0)">
          <path d="M 8 -6.55 C 9.75 -6.3 11.05 -5.4 11.05 -3.5 C 11.05 0.85 5.75 -0.1 1.5 0 L 1.5 -12.4 C 5.3 -12.25 10.35 -13.25 10.35 -9.4 C 10.35 -7.75 9.4 -6.9 8 -6.55 Z M 3.15 -7.1 C 5.65 -7.15 8.65 -6.65 8.65 -9.2 C 8.65 -11.55 5.5 -11 3.15 -11.05 L 3.15 -7.1 Z M 3.15 -1.35 C 5.9 -1.45 9.35 -0.65 9.35 -3.6 C 9.35 -6.4 5.85 -5.7 3.15 -5.8 L 3.15 -1.35"/>
          <path d="M 17.7 -8.15 C 13.8 -8.95 15.05 -3.6 14.85 0 L 13.25 0 L 13.2 -9.5 L 14.7 -9.5 C 14.75 -8.9 14.65 -8.05 14.8 -7.55 C 15.1 -8.9 15.95 -10 17.7 -9.6 L 17.7 -8.15"/>
          <path d="M 22.95 -9.7 C 26.1 -9.7 27.25 -7.6 27.15 -4.4 L 20.4 -4.4 C 20.4 -2.4 21.1 -1.05 23.05 -1 C 24.35 -0.95 25.2 -1.6 25.5 -2.45 L 26.9 -2.05 C 26.35 -0.65 25.05 0.2 23.05 0.2 C 20.15 0.2 18.65 -1.65 18.7 -4.8 C 18.75 -7.85 20 -9.7 22.95 -9.7 Z M 25.55 -5.65 C 25.85 -8.65 21.75 -9.5 20.7 -7.05 C 20.55 -6.7 20.4 -6.2 20.4 -5.65 L 25.55 -5.65"/>
          <path d="M 38.45 -8.45 C 35.1 -8.3 36.55 -3.2 36.25 0 L 34.7 0 L 34.7 -6.05 C 34.7 -7.5 34.45 -8.55 32.95 -8.45 C 29.65 -8.25 31.05 -3.25 30.75 0 L 29.2 0 L 29.15 -9.5 L 30.65 -9.5 C 30.7 -9 30.6 -8.3 30.75 -7.9 C 31.25 -10.1 35.7 -10.4 36.1 -7.9 C 36.65 -8.95 37.45 -9.65 39 -9.7 C 43.25 -9.8 41.35 -3.75 41.75 0 L 40.2 0 L 40.2 -6.05 C 40.2 -7.5 39.95 -8.5 38.45 -8.45"/>
          <path d="M 49.65 -7.15 C 49.5 -8.85 45.35 -9.05 45.3 -7.15 C 46.05 -4.5 51.05 -6.55 51.25 -2.65 C 51.45 1.25 43.75 1.05 43.4 -2.25 L 44.8 -2.5 C 45 -0.7 49.65 -0.25 49.7 -2.5 C 49.2 -5.3 44.05 -3.25 43.8 -7 C 43.6 -9.85 47.9 -10.15 49.9 -9.1 C 50.5 -8.75 50.95 -8.15 51.1 -7.35"/>
          <path d="M 58.95 -1.8 C 58.2 -0.75 57.4 0.25 55.55 0.2 C 53.75 0.15 52.65 -0.85 52.65 -2.65 C 52.6 -5.85 55.8 -5.8 58.9 -5.8 C 59.05 -7.55 58.45 -8.5 56.85 -8.5 C 55.65 -8.45 54.8 -8.15 54.75 -6.95 L 53.1 -7.1 C 53.35 -8.95 54.75 -9.7 56.9 -9.7 C 59.15 -9.7 60.5 -8.7 60.5 -6.5 L 60.5 -2.4 C 60.45 -1.4 60.85 -0.8 61.9 -1.05 L 61.9 -0.05 C 60.35 0.4 58.85 -0.15 58.95 -1.8 Z M 54.3 -2.65 C 54.3 -1.65 54.9 -1 55.9 -1 C 57.95 -1.15 59.05 -2.45 58.9 -4.7 C 56.75 -4.6 54.3 -4.95 54.3 -2.65"/>
          <path d="M 67.6 -8.15 C 63.7 -8.95 64.95 -3.6 64.75 0 L 63.15 0 L 63.1 -9.5 L 64.6 -9.5 C 64.65 -8.9 64.55 -8.05 64.7 -7.55 C 65 -8.9 65.85 -10 67.6 -9.6 L 67.6 -8.15"/>
          <path d="M 70.8 -2.35 C 70.7 -1.15 71.7 -0.9 72.7 -1.25 L 72.7 -0.05 C 71.05 0.45 69.2 0.2 69.2 -2 L 69.2 -8.35 L 68.1 -8.35 L 68.1 -9.5 L 69.3 -9.5 L 69.75 -11.65 L 70.8 -11.65 L 70.8 -9.5 L 72.55 -9.5 L 72.55 -8.35 L 70.8 -8.35 L 70.8 -2.35"/>
        </g>
        <path d="M 132.75 -9.5 C 132.25 -3.25 134.8 5.15 127.25 3.55 C 126.1 3.25 125.35 2.55 125.05 1.4 L 126.65 1.15 C 127.4 3.5 131.65 2.75 131.1 -0.25 L 131.1 -1.75 C 130.55 -0.7 129.65 0.05 128.05 0.05 C 125.35 0.05 124.65 -2 124.65 -4.75 C 124.65 -7.55 125.45 -9.6 128.2 -9.65 C 129.65 -9.7 130.6 -8.85 131.15 -7.9 C 131.2 -8.4 131.15 -9.05 131.25 -9.5 L 132.75 -9.5 Z M 128.6 -1.1 C 130.4 -1.1 131.1 -2.7 131.1 -4.75 C 131.1 -6.85 130.4 -8.5 128.6 -8.5 C 126.65 -8.5 126.3 -6.8 126.3 -4.75 C 126.3 -2.7 126.6 -1.1 128.6 -1.1"/>
      </g>
      <path d="M63-220v92h138v28H63V0H30v-248h175v28H63" id="E"/>
      <path d="M24 0v-261h32V0H24" id="F"/>
      <g id="e">
        <path d="M 3.15 -11 L 3.15 -6.4 L 10.05 -6.4 L 10.05 -5 L 3.15 -5 L 3.15 0 L 1.5 0 L 1.5 -12.4 L 10.25 -12.4 L 10.25 -11 L 3.15 -11"/>
        <path d="M 15.95 -9.7 C 19.1 -9.7 20.25 -7.6 20.15 -4.4 L 13.4 -4.4 C 13.4 -2.4 14.1 -1.05 16.05 -1 C 17.35 -0.95 18.2 -1.6 18.5 -2.45 L 19.9 -2.05 C 19.35 -0.65 18.05 0.2 16.05 0.2 C 13.15 0.2 11.65 -1.65 11.7 -4.8 C 11.75 -7.85 13 -9.7 15.95 -9.7 Z M 18.55 -5.65 C 18.85 -8.65 14.75 -9.5 13.7 -7.05 C 13.55 -6.7 13.4 -6.2 13.4 -5.65 L 18.55 -5.65"/>
        <path d="M 27.7 -7.15 C 27.55 -8.85 23.4 -9.05 23.35 -7.15 C 24.1 -4.5 29.1 -6.55 29.3 -2.65 C 29.5 1.25 21.8 1.05 21.45 -2.25 L 22.85 -2.5 C 23.05 -0.7 27.7 -0.25 27.75 -2.5 C 27.25 -5.3 22.1 -3.25 21.85 -7 C 21.65 -9.85 25.95 -10.15 27.95 -9.1 C 28.55 -8.75 29 -8.15 29.15 -7.35"/>
        <path d="M 32.9 -2.35 C 32.8 -1.15 33.8 -0.9 34.8 -1.25 L 34.8 -0.05 C 33.15 0.45 31.3 0.2 31.3 -2 L 31.3 -8.35 L 30.2 -8.35 L 30.2 -9.5 L 31.4 -9.5 L 31.85 -11.65 L 32.9 -11.65 L 32.9 -9.5 L 34.65 -9.5 L 34.65 -8.35 L 32.9 -8.35 L 32.9 -2.35"/>
        <path d="M 41.7 -7.15 C 41.55 -8.85 37.4 -9.05 37.35 -7.15 C 38.1 -4.5 43.1 -6.55 43.3 -2.65 C 43.5 1.25 35.8 1.05 35.45 -2.25 L 36.85 -2.5 C 37.05 -0.7 41.7 -0.25 41.75 -2.5 C 41.25 -5.3 36.1 -3.25 35.85 -7 C 35.65 -9.85 39.95 -10.15 41.95 -9.1 C 42.55 -8.75 43 -8.15 43.15 -7.35"/>
        <path d="M 46.9 -2.35 C 46.8 -1.15 47.8 -0.9 48.8 -1.25 L 48.8 -0.05 C 47.15 0.45 45.3 0.2 45.3 -2 L 45.3 -8.35 L 44.2 -8.35 L 44.2 -9.5 L 45.4 -9.5 L 45.85 -11.65 L 46.9 -11.65 L 46.9 -9.5 L 48.65 -9.5 L 48.65 -8.35 L 46.9 -8.35 L 46.9 -2.35"/>
        <path d="M 53.95 -9.7 C 57.1 -9.7 58.25 -7.6 58.15 -4.4 L 51.4 -4.4 C 51.4 -2.4 52.1 -1.05 54.05 -1 C 55.35 -0.95 56.2 -1.6 56.5 -2.45 L 57.9 -2.05 C 57.35 -0.65 56.05 0.2 54.05 0.2 C 51.15 0.2 49.65 -1.65 49.7 -4.8 C 49.75 -7.85 51 -9.7 53.95 -9.7 Z M 56.55 -5.65 C 56.85 -8.65 52.75 -9.5 51.7 -7.05 C 51.55 -6.7 51.4 -6.2 51.4 -5.65 L 56.55 -5.65"/>
        <path d="M 60.15 0 L 60.15 -13.05 L 61.75 -13.05 L 61.75 0 L 60.15 0"/>
        <path d="M 64.1 0 L 64.1 -13.05 L 65.7 -13.05 L 65.7 0 L 64.1 0"/>
        <g transform="matrix(0.05, 0, 0, 0.05, 66.85, 0)">
          <path d="M 7.05 -1.8 C 6.3 -0.75 5.5 0.25 3.65 0.2 C 1.85 0.15 0.75 -0.85 0.75 -2.65 C 0.7 -5.85 3.9 -5.8 7 -5.8 C 7.15 -7.55 6.55 -8.5 4.95 -8.5 C 3.75 -8.45 2.9 -8.15 2.85 -6.95 L 1.2 -7.1 C 1.45 -8.95 2.85 -9.7 5 -9.7 C 7.25 -9.7 8.6 -8.7 8.6 -6.5 L 8.6 -2.4 C 8.55 -1.4 8.95 -0.8 10 -1.05 L 10 -0.05 C 8.45 0.4 6.95 -0.15 7.05 -1.8 Z M 2.4 -2.65 C 2.4 -1.65 3 -1 4 -1 C 6.05 -1.15 7.15 -2.45 7 -4.7 C 4.85 -4.6 2.4 -4.95 2.4 -2.65"/>
          <path d="M 14.2 0.2 C 9.75 0.4 11.5 -5.6 11.15 -9.5 L 12.75 -9.5 L 12.75 -3.5 C 12.75 -1.95 13.1 -1 14.7 -1.05 C 18.3 -1.15 16.95 -6.1 17.2 -9.5 L 18.75 -9.5 L 18.8 0 L 17.3 0 C 17.25 -0.5 17.35 -1.25 17.2 -1.65 C 16.65 -0.55 15.8 0.15 14.2 0.2"/>
          <path d="M 26.75 -7.15 C 26.6 -8.85 22.45 -9.05 22.4 -7.15 C 23.15 -4.5 28.15 -6.55 28.35 -2.65 C 28.55 1.25 20.85 1.05 20.5 -2.25 L 21.9 -2.5 C 22.1 -0.7 26.75 -0.25 26.8 -2.5 C 26.3 -5.3 21.15 -3.25 20.9 -7 C 20.7 -9.85 25 -10.15 27 -9.1 C 27.6 -8.75 28.05 -8.15 28.2 -7.35"/>
        </g>
        <path d="M 82.55 -8.15 C 78.65 -8.95 79.9 -3.6 79.7 0 L 78.1 0 L 78.05 -9.5 L 79.55 -9.5 C 79.6 -8.9 79.5 -8.05 79.65 -7.55 C 79.95 -8.9 80.8 -10 82.55 -9.6 L 82.55 -8.15"/>
        <path d="M 87.8 -9.7 C 90.95 -9.7 92.1 -7.6 92 -4.4 L 85.25 -4.4 C 85.25 -2.4 85.95 -1.05 87.9 -1 C 89.2 -0.95 90.05 -1.6 90.35 -2.45 L 91.75 -2.05 C 91.2 -0.65 89.9 0.2 87.9 0.2 C 85 0.2 83.5 -1.65 83.55 -4.8 C 83.6 -7.85 84.85 -9.7 87.8 -9.7 Z M 90.4 -5.65 C 90.7 -8.65 86.6 -9.5 85.55 -7.05 C 85.4 -6.7 85.25 -6.2 85.25 -5.65 L 90.4 -5.65"/>
        <path d="M 103.3 -8.45 C 99.95 -8.3 101.4 -3.2 101.1 0 L 99.55 0 L 99.55 -6.05 C 99.55 -7.5 99.3 -8.55 97.8 -8.45 C 94.5 -8.25 95.9 -3.25 95.6 0 L 94.05 0 L 94 -9.5 L 95.5 -9.5 C 95.55 -9 95.45 -8.3 95.6 -7.9 C 96.1 -10.1 100.55 -10.4 100.95 -7.9 C 101.5 -8.95 102.3 -9.65 103.85 -9.7 C 108.1 -9.8 106.2 -3.75 106.6 0 L 105.05 0 L 105.05 -6.05 C 105.05 -7.5 104.8 -8.5 103.3 -8.45"/>
        <path d="M 114.5 -7.15 C 114.35 -8.85 110.2 -9.05 110.15 -7.15 C 110.9 -4.5 115.9 -6.55 116.1 -2.65 C 116.3 1.25 108.6 1.05 108.25 -2.25 L 109.65 -2.5 C 109.85 -0.7 114.5 -0.25 114.55 -2.5 C 114.05 -5.3 108.9 -3.25 108.65 -7 C 108.45 -9.85 112.75 -10.15 114.75 -9.1 C 115.35 -8.75 115.8 -8.15 115.95 -7.35"/>
        <path d="M 121.75 -9.7 C 124.9 -9.7 126.05 -7.6 125.95 -4.4 L 119.2 -4.4 C 119.2 -2.4 119.9 -1.05 121.85 -1 C 123.15 -0.95 124 -1.6 124.3 -2.45 L 125.7 -2.05 C 125.15 -0.65 123.85 0.2 121.85 0.2 C 118.95 0.2 117.45 -1.65 117.5 -4.8 C 117.55 -7.85 118.8 -9.7 121.75 -9.7 Z M 124.35 -5.65 C 124.65 -8.65 120.55 -9.5 119.5 -7.05 C 119.35 -6.7 119.2 -6.2 119.2 -5.65 L 124.35 -5.65"/>
      </g>
      <path d="M197 0v-115H63V0H30v-248h33v105h134v-105h34V0h-34" id="G"/>
      <g id="f">
        <path d="M 9.85 0 L 9.85 -5.75 L 3.15 -5.75 L 3.15 0 L 1.5 0 L 1.5 -12.4 L 3.15 -12.4 L 3.15 -7.15 L 9.85 -7.15 L 9.85 -12.4 L 11.55 -12.4 L 11.55 0 L 9.85 0"/>
        <g transform="matrix(0.05, 0, 0, 0.05, 12.95, 0)">
          <path d="M 8 -6.55 C 9.75 -6.3 11.05 -5.4 11.05 -3.5 C 11.05 0.85 5.75 -0.1 1.5 0 L 1.5 -12.4 C 5.3 -12.25 10.35 -13.25 10.35 -9.4 C 10.35 -7.75 9.4 -6.9 8 -6.55 Z M 3.15 -7.1 C 5.65 -7.15 8.65 -6.65 8.65 -9.2 C 8.65 -11.55 5.5 -11 3.15 -11.05 L 3.15 -7.1 Z M 3.15 -1.35 C 5.9 -1.45 9.35 -0.65 9.35 -3.6 C 9.35 -6.4 5.85 -5.7 3.15 -5.8 L 3.15 -1.35"/>
          <path d="M 17.7 -8.15 C 13.8 -8.95 15.05 -3.6 14.85 0 L 13.25 0 L 13.2 -9.5 L 14.7 -9.5 C 14.75 -8.9 14.65 -8.05 14.8 -7.55 C 15.1 -8.9 15.95 -10 17.7 -9.6 L 17.7 -8.15"/>
          <path d="M 22.95 -9.7 C 26.1 -9.7 27.25 -7.6 27.15 -4.4 L 20.4 -4.4 C 20.4 -2.4 21.1 -1.05 23.05 -1 C 24.35 -0.95 25.2 -1.6 25.5 -2.45 L 26.9 -2.05 C 26.35 -0.65 25.05 0.2 23.05 0.2 C 20.15 0.2 18.65 -1.65 18.7 -4.8 C 18.75 -7.85 20 -9.7 22.95 -9.7 Z M 25.55 -5.65 C 25.85 -8.65 21.75 -9.5 20.7 -7.05 C 20.55 -6.7 20.4 -6.2 20.4 -5.65 L 25.55 -5.65"/>
          <path d="M 38.45 -8.45 C 35.1 -8.3 36.55 -3.2 36.25 0 L 34.7 0 L 34.7 -6.05 C 34.7 -7.5 34.45 -8.55 32.95 -8.45 C 29.65 -8.25 31.05 -3.25 30.75 0 L 29.2 0 L 29.15 -9.5 L 30.65 -9.5 C 30.7 -9 30.6 -8.3 30.75 -7.9 C 31.25 -10.1 35.7 -10.4 36.1 -7.9 C 36.65 -8.95 37.45 -9.65 39 -9.7 C 43.25 -9.8 41.35 -3.75 41.75 0 L 40.2 0 L 40.2 -6.05 C 40.2 -7.5 39.95 -8.5 38.45 -8.45"/>
          <path d="M 49.65 -7.15 C 49.5 -8.85 45.35 -9.05 45.3 -7.15 C 46.05 -4.5 51.05 -6.55 51.25 -2.65 C 51.45 1.25 43.75 1.05 43.4 -2.25 L 44.8 -2.5 C 45 -0.7 49.65 -0.25 49.7 -2.5 C 49.2 -5.3 44.05 -3.25 43.8 -7 C 43.6 -9.85 47.9 -10.15 49.9 -9.1 C 50.5 -8.75 50.95 -8.15 51.1 -7.35"/>
          <path d="M 56.9 -9.7 C 60.05 -9.7 61.2 -7.6 61.1 -4.4 L 54.35 -4.4 C 54.35 -2.4 55.05 -1.05 57 -1 C 58.3 -0.95 59.15 -1.6 59.45 -2.45 L 60.85 -2.05 C 60.3 -0.65 59 0.2 57 0.2 C 54.1 0.2 52.6 -1.65 52.65 -4.8 C 52.7 -7.85 53.95 -9.7 56.9 -9.7 Z M 59.5 -5.65 C 59.8 -8.65 55.7 -9.5 54.65 -7.05 C 54.5 -6.7 54.35 -6.2 54.35 -5.65 L 59.5 -5.65"/>
        </g>
      </g>
      <path d="M108 0H70L1-190h34L89-25l56-165h34" id="H"/>
      <path d="M24-231v-30h32v30H24zM24 0v-190h32V0H24" id="I"/>
      <path d="M85-194c31 0 48 13 60 33l-1-100h32l1 261h-30c-2-10 0-23-3-31C134-8 116 4 85 4 32 4 16-35 15-94c0-66 23-100 70-100zm9 24c-40 0-46 34-46 75 0 40 6 74 45 74 42 0 51-32 51-76 0-42-9-74-50-73" id="J"/>
      <g id="g">
        <path d="M 5.4 0 L 3.5 0 L 0.05 -9.5 L 1.75 -9.5 L 4.45 -1.25 L 7.25 -9.5 L 8.95 -9.5"/>
        <path d="M 14 -9.7 C 17.15 -9.7 18.3 -7.6 18.2 -4.4 L 11.45 -4.4 C 11.45 -2.4 12.15 -1.05 14.1 -1 C 15.4 -0.95 16.25 -1.6 16.55 -2.45 L 17.95 -2.05 C 17.4 -0.65 16.1 0.2 14.1 0.2 C 11.2 0.2 9.7 -1.65 9.75 -4.8 C 9.8 -7.85 11.05 -9.7 14 -9.7 Z M 16.6 -5.65 C 16.9 -8.65 12.8 -9.5 11.75 -7.05 C 11.6 -6.7 11.45 -6.2 11.45 -5.65 L 16.6 -5.65"/>
        <path d="M 24.7 -8.15 C 20.8 -8.95 22.05 -3.6 21.85 0 L 20.25 0 L 20.2 -9.5 L 21.7 -9.5 C 21.75 -8.9 21.65 -8.05 21.8 -7.55 C 22.1 -8.9 22.95 -10 24.7 -9.6 L 24.7 -8.15"/>
        <g transform="matrix(0.05, 0, 0, 0.05, 24.95, 0)">
          <path d="M 7.05 -1.8 C 6.3 -0.75 5.5 0.25 3.65 0.2 C 1.85 0.15 0.75 -0.85 0.75 -2.65 C 0.7 -5.85 3.9 -5.8 7 -5.8 C 7.15 -7.55 6.55 -8.5 4.95 -8.5 C 3.75 -8.45 2.9 -8.15 2.85 -6.95 L 1.2 -7.1 C 1.45 -8.95 2.85 -9.7 5 -9.7 C 7.25 -9.7 8.6 -8.7 8.6 -6.5 L 8.6 -2.4 C 8.55 -1.4 8.95 -0.8 10 -1.05 L 10 -0.05 C 8.45 0.4 6.95 -0.15 7.05 -1.8 Z M 2.4 -2.65 C 2.4 -1.65 3 -1 4 -1 C 6.05 -1.15 7.15 -2.45 7 -4.7 C 4.85 -4.6 2.4 -4.95 2.4 -2.65"/>
          <path d="M 14.2 0.2 C 9.75 0.4 11.5 -5.6 11.15 -9.5 L 12.75 -9.5 L 12.75 -3.5 C 12.75 -1.95 13.1 -1 14.7 -1.05 C 18.3 -1.15 16.95 -6.1 17.2 -9.5 L 18.75 -9.5 L 18.8 0 L 17.3 0 C 17.25 -0.5 17.35 -1.25 17.2 -1.65 C 16.65 -0.55 15.8 0.15 14.2 0.2"/>
          <path d="M 26.75 -7.15 C 26.6 -8.85 22.45 -9.05 22.4 -7.15 C 23.15 -4.5 28.15 -6.55 28.35 -2.65 C 28.55 1.25 20.85 1.05 20.5 -2.25 L 21.9 -2.5 C 22.1 -0.7 26.75 -0.25 26.8 -2.5 C 26.3 -5.3 21.15 -3.25 20.9 -7 C 20.7 -9.85 25 -10.15 27 -9.1 C 27.6 -8.75 28.05 -8.15 28.2 -7.35"/>
        </g>
        <path d="M 36.15 -11.55 L 36.15 -13.05 L 37.75 -13.05 L 37.75 -11.55 L 36.15 -11.55 Z M 36.15 0 L 36.15 -9.5 L 37.75 -9.5 L 37.75 0 L 36.15 0"/>
        <g transform="matrix(0.05, 0, 0, 0.05, 38.9, 0)">
          <path d="M 8 -6.55 C 9.75 -6.3 11.05 -5.4 11.05 -3.5 C 11.05 0.85 5.75 -0.1 1.5 0 L 1.5 -12.4 C 5.3 -12.25 10.35 -13.25 10.35 -9.4 C 10.35 -7.75 9.4 -6.9 8 -6.55 Z M 3.15 -7.1 C 5.65 -7.15 8.65 -6.65 8.65 -9.2 C 8.65 -11.55 5.5 -11 3.15 -11.05 L 3.15 -7.1 Z M 3.15 -1.35 C 5.9 -1.45 9.35 -0.65 9.35 -3.6 C 9.35 -6.4 5.85 -5.7 3.15 -5.8 L 3.15 -1.35"/>
          <path d="M 17.7 -8.15 C 13.8 -8.95 15.05 -3.6 14.85 0 L 13.25 0 L 13.2 -9.5 L 14.7 -9.5 C 14.75 -8.9 14.65 -8.05 14.8 -7.55 C 15.1 -8.9 15.95 -10 17.7 -9.6 L 17.7 -8.15"/>
          <path d="M 22.95 -9.7 C 26.1 -9.7 27.25 -7.6 27.15 -4.4 L 20.4 -4.4 C 20.4 -2.4 21.1 -1.05 23.05 -1 C 24.35 -0.95 25.2 -1.6 25.5 -2.45 L 26.9 -2.05 C 26.35 -0.65 25.05 0.2 23.05 0.2 C 20.15 0.2 18.65 -1.65 18.7 -4.8 C 18.75 -7.85 20 -9.7 22.95 -9.7 Z M 25.55 -5.65 C 25.85 -8.65 21.75 -9.5 20.7 -7.05 C 20.55 -6.7 20.4 -6.2 20.4 -5.65 L 25.55 -5.65"/>
          <path d="M 38.45 -8.45 C 35.1 -8.3 36.55 -3.2 36.25 0 L 34.7 0 L 34.7 -6.05 C 34.7 -7.5 34.45 -8.55 32.95 -8.45 C 29.65 -8.25 31.05 -3.25 30.75 0 L 29.2 0 L 29.15 -9.5 L 30.65 -9.5 C 30.7 -9 30.6 -8.3 30.75 -7.9 C 31.25 -10.1 35.7 -10.4 36.1 -7.9 C 36.65 -8.95 37.45 -9.65 39 -9.7 C 43.25 -9.8 41.35 -3.75 41.75 0 L 40.2 0 L 40.2 -6.05 C 40.2 -7.5 39.95 -8.5 38.45 -8.45"/>
          <path d="M 49.65 -7.15 C 49.5 -8.85 45.35 -9.05 45.3 -7.15 C 46.05 -4.5 51.05 -6.55 51.25 -2.65 C 51.45 1.25 43.75 1.05 43.4 -2.25 L 44.8 -2.5 C 45 -0.7 49.65 -0.25 49.7 -2.5 C 49.2 -5.3 44.05 -3.25 43.8 -7 C 43.6 -9.85 47.9 -10.15 49.9 -9.1 C 50.5 -8.75 50.95 -8.15 51.1 -7.35"/>
          <path d="M 58.95 -1.8 C 58.2 -0.75 57.4 0.25 55.55 0.2 C 53.75 0.15 52.65 -0.85 52.65 -2.65 C 52.6 -5.85 55.8 -5.8 58.9 -5.8 C 59.05 -7.55 58.45 -8.5 56.85 -8.5 C 55.65 -8.45 54.8 -8.15 54.75 -6.95 L 53.1 -7.1 C 53.35 -8.95 54.75 -9.7 56.9 -9.7 C 59.15 -9.7 60.5 -8.7 60.5 -6.5 L 60.5 -2.4 C 60.45 -1.4 60.85 -0.8 61.9 -1.05 L 61.9 -0.05 C 60.35 0.4 58.85 -0.15 58.95 -1.8 Z M 54.3 -2.65 C 54.3 -1.65 54.9 -1 55.9 -1 C 57.95 -1.15 59.05 -2.45 58.9 -4.7 C 56.75 -4.6 54.3 -4.95 54.3 -2.65"/>
          <path d="M 67.6 -8.15 C 63.7 -8.95 64.95 -3.6 64.75 0 L 63.15 0 L 63.1 -9.5 L 64.6 -9.5 C 64.65 -8.9 64.55 -8.05 64.7 -7.55 C 65 -8.9 65.85 -10 67.6 -9.6 L 67.6 -8.15"/>
          <path d="M 70.8 -2.35 C 70.7 -1.15 71.7 -0.9 72.7 -1.25 L 72.7 -0.05 C 71.05 0.45 69.2 0.2 69.2 -2 L 69.2 -8.35 L 68.1 -8.35 L 68.1 -9.5 L 69.3 -9.5 L 69.75 -11.65 L 70.8 -11.65 L 70.8 -9.5 L 72.55 -9.5 L 72.55 -8.35 L 70.8 -8.35 L 70.8 -2.35"/>
        </g>
        <path d="M 53.15 -9.7 C 54.7 -9.7 55.55 -9.05 56.15 -8.05 L 56.1 -13.05 L 57.7 -13.05 L 57.75 0 L 56.25 0 C 56.15 -0.5 56.25 -1.15 56.1 -1.55 C 55.6 -0.4 54.7 0.2 53.15 0.2 C 50.5 0.2 49.7 -1.75 49.65 -4.7 C 49.65 -8 50.8 -9.7 53.15 -9.7 Z M 53.6 -8.5 C 51.6 -8.5 51.3 -6.8 51.3 -4.75 C 51.3 -2.75 51.6 -1.05 53.55 -1.05 C 55.65 -1.05 56.1 -2.65 56.1 -4.85 C 56.1 -6.95 55.65 -8.55 53.6 -8.5"/>
        <path d="M 63.9 -9.7 C 67.05 -9.7 68.2 -7.6 68.1 -4.4 L 61.35 -4.4 C 61.35 -2.4 62.05 -1.05 64 -1 C 65.3 -0.95 66.15 -1.6 66.45 -2.45 L 67.85 -2.05 C 67.3 -0.65 66 0.2 64 0.2 C 61.1 0.2 59.6 -1.65 59.65 -4.8 C 59.7 -7.85 60.95 -9.7 63.9 -9.7 Z M 66.5 -5.65 C 66.8 -8.65 62.7 -9.5 61.65 -7.05 C 61.5 -6.7 61.35 -6.2 61.35 -5.65 L 66.5 -5.65"/>
        <g transform="matrix(0.05, 0, 0, 0.05, 68.9, 0)">
          <path d="M 8 -6.55 C 9.75 -6.3 11.05 -5.4 11.05 -3.5 C 11.05 0.85 5.75 -0.1 1.5 0 L 1.5 -12.4 C 5.3 -12.25 10.35 -13.25 10.35 -9.4 C 10.35 -7.75 9.4 -6.9 8 -6.55 Z M 3.15 -7.1 C 5.65 -7.15 8.65 -6.65 8.65 -9.2 C 8.65 -11.55 5.5 -11 3.15 -11.05 L 3.15 -7.1 Z M 3.15 -1.35 C 5.9 -1.45 9.35 -0.65 9.35 -3.6 C 9.35 -6.4 5.85 -5.7 3.15 -5.8 L 3.15 -1.35"/>
          <path d="M 17.7 -8.15 C 13.8 -8.95 15.05 -3.6 14.85 0 L 13.25 0 L 13.2 -9.5 L 14.7 -9.5 C 14.75 -8.9 14.65 -8.05 14.8 -7.55 C 15.1 -8.9 15.95 -10 17.7 -9.6 L 17.7 -8.15"/>
          <path d="M 22.95 -9.7 C 26.1 -9.7 27.25 -7.6 27.15 -4.4 L 20.4 -4.4 C 20.4 -2.4 21.1 -1.05 23.05 -1 C 24.35 -0.95 25.2 -1.6 25.5 -2.45 L 26.9 -2.05 C 26.35 -0.65 25.05 0.2 23.05 0.2 C 20.15 0.2 18.65 -1.65 18.7 -4.8 C 18.75 -7.85 20 -9.7 22.95 -9.7 Z M 25.55 -5.65 C 25.85 -8.65 21.75 -9.5 20.7 -7.05 C 20.55 -6.7 20.4 -6.2 20.4 -5.65 L 25.55 -5.65"/>
          <path d="M 38.45 -8.45 C 35.1 -8.3 36.55 -3.2 36.25 0 L 34.7 0 L 34.7 -6.05 C 34.7 -7.5 34.45 -8.55 32.95 -8.45 C 29.65 -8.25 31.05 -3.25 30.75 0 L 29.2 0 L 29.15 -9.5 L 30.65 -9.5 C 30.7 -9 30.6 -8.3 30.75 -7.9 C 31.25 -10.1 35.7 -10.4 36.1 -7.9 C 36.65 -8.95 37.45 -9.65 39 -9.7 C 43.25 -9.8 41.35 -3.75 41.75 0 L 40.2 0 L 40.2 -6.05 C 40.2 -7.5 39.95 -8.5 38.45 -8.45"/>
          <path d="M 49.65 -7.15 C 49.5 -8.85 45.35 -9.05 45.3 -7.15 C 46.05 -4.5 51.05 -6.55 51.25 -2.65 C 51.45 1.25 43.75 1.05 43.4 -2.25 L 44.8 -2.5 C 45 -0.7 49.65 -0.25 49.7 -2.5 C 49.2 -5.3 44.05 -3.25 43.8 -7 C 43.6 -9.85 47.9 -10.15 49.9 -9.1 C 50.5 -8.75 50.95 -8.15 51.1 -7.35"/>
          <path d="M 58.95 -1.8 C 58.2 -0.75 57.4 0.25 55.55 0.2 C 53.75 0.15 52.65 -0.85 52.65 -2.65 C 52.6 -5.85 55.8 -5.8 58.9 -5.8 C 59.05 -7.55 58.45 -8.5 56.85 -8.5 C 55.65 -8.45 54.8 -8.15 54.75 -6.95 L 53.1 -7.1 C 53.35 -8.95 54.75 -9.7 56.9 -9.7 C 59.15 -9.7 60.5 -8.7 60.5 -6.5 L 60.5 -2.4 C 60.45 -1.4 60.85 -0.8 61.9 -1.05 L 61.9 -0.05 C 60.35 0.4 58.85 -0.15 58.95 -1.8 Z M 54.3 -2.65 C 54.3 -1.65 54.9 -1 55.9 -1 C 57.95 -1.15 59.05 -2.45 58.9 -4.7 C 56.75 -4.6 54.3 -4.95 54.3 -2.65"/>
          <path d="M 67.6 -8.15 C 63.7 -8.95 64.95 -3.6 64.75 0 L 63.15 0 L 63.1 -9.5 L 64.6 -9.5 C 64.65 -8.9 64.55 -8.05 64.7 -7.55 C 65 -8.9 65.85 -10 67.6 -9.6 L 67.6 -8.15"/>
          <path d="M 70.8 -2.35 C 70.7 -1.15 71.7 -0.9 72.7 -1.25 L 72.7 -0.05 C 71.05 0.45 69.2 0.2 69.2 -2 L 69.2 -8.35 L 68.1 -8.35 L 68.1 -9.5 L 69.3 -9.5 L 69.75 -11.65 L 70.8 -11.65 L 70.8 -9.5 L 72.55 -9.5 L 72.55 -8.35 L 70.8 -8.35 L 70.8 -2.35"/>
        </g>
      </g>
      <path d="M212-179c-10-28-35-45-73-45-59 0-87 40-87 99 0 60 29 101 89 101 43 0 62-24 78-52l27 14C228-24 195 4 139 4 59 4 22-46 18-125c-6-104 99-153 187-111 19 9 31 26 39 46" id="K"/>
      <path d="M16-82v-28h88v28H16" id="L"/>
      <path d="M30-248c118-7 216 8 213 122C240-48 200 0 122 0H30v-248zM63-27c89 8 146-16 146-99s-60-101-146-95v194" id="M"/>
      <path d="M96-169c-40 0-48 33-48 73s9 75 48 75c24 0 41-14 43-38l32 2c-6 37-31 61-74 61-59 0-76-41-82-99-10-93 101-131 147-64 4 7 5 14 7 22l-32 3c-4-21-16-35-41-35" id="N"/>
      <path d="M143 0L79-87 56-68V0H24v-261h32v163l83-92h37l-77 82L181 0h-38" id="O"/>
      <g id="h">
        <path d="M 10.6 -8.95 C 10.1 -10.35 8.85 -11.2 6.95 -11.2 C 4 -11.2 2.6 -9.2 2.6 -6.25 C 2.6 -3.25 4.05 -1.2 7.05 -1.2 C 9.2 -1.2 10.15 -2.4 10.95 -3.8 L 12.3 -3.1 C 11.4 -1.2 9.75 0.2 6.95 0.2 C 2.95 0.2 1.1 -2.3 0.9 -6.25 C 0.6 -11.45 5.85 -13.9 10.25 -11.8 C 11.2 -11.35 11.8 -10.5 12.2 -9.5"/>
        <path d="M 13.75 -4.1 L 13.75 -5.5 L 18.15 -5.5 L 18.15 -4.1 L 13.75 -4.1"/>
        <path d="M 20.4 -12.4 C 26.3 -12.75 31.2 -12 31.05 -6.3 C 30.9 -2.4 28.9 0 25 0 L 20.4 0 L 20.4 -12.4 Z M 22.05 -1.35 C 26.5 -0.95 29.35 -2.15 29.35 -6.3 C 29.35 -10.45 26.35 -11.35 22.05 -11.05 L 22.05 -1.35"/>
        <path d="M 37.55 -8.15 C 33.65 -8.95 34.9 -3.6 34.7 0 L 33.1 0 L 33.05 -9.5 L 34.55 -9.5 C 34.6 -8.9 34.5 -8.05 34.65 -7.55 C 34.95 -8.9 35.8 -10 37.55 -9.6 L 37.55 -8.15"/>
        <path d="M 42 0.2 C 37.55 0.4 39.3 -5.6 38.95 -9.5 L 40.55 -9.5 L 40.55 -3.5 C 40.55 -1.95 40.9 -1 42.5 -1.05 C 46.1 -1.15 44.75 -6.1 45 -9.5 L 46.55 -9.5 L 46.6 0 L 45.1 0 C 45.05 -0.5 45.15 -1.25 45 -1.65 C 44.45 -0.55 43.6 0.15 42 0.2"/>
        <path d="M 52.6 -8.45 C 50.6 -8.45 50.2 -6.8 50.2 -4.8 C 50.2 -2.8 50.65 -1.05 52.6 -1.05 C 53.8 -1.05 54.65 -1.75 54.75 -2.95 L 56.35 -2.85 C 56.05 -1 54.8 0.2 52.65 0.2 C 49.7 0.2 48.85 -1.85 48.55 -4.75 C 48.05 -9.4 53.6 -11.3 55.9 -7.95 C 56.1 -7.6 56.15 -7.25 56.25 -6.85 L 54.65 -6.7 C 54.45 -7.75 53.85 -8.45 52.6 -8.45"/>
        <path d="M 63.95 0 L 60.75 -4.35 L 59.6 -3.4 L 59.6 0 L 58 0 L 58 -13.05 L 59.6 -13.05 L 59.6 -4.9 L 63.75 -9.5 L 65.6 -9.5 L 61.75 -5.4 L 65.85 0 L 63.95 0"/>
      </g>
      <g id="i">
        <path d="M 10.5 -8.45 C 7.15 -8.3 8.6 -3.2 8.3 0 L 6.75 0 L 6.75 -6.05 C 6.75 -7.5 6.5 -8.55 5 -8.45 C 1.7 -8.25 3.1 -3.25 2.8 0 L 1.25 0 L 1.2 -9.5 L 2.7 -9.5 C 2.75 -9 2.65 -8.3 2.8 -7.9 C 3.3 -10.1 7.75 -10.4 8.15 -7.9 C 8.7 -8.95 9.5 -9.65 11.05 -9.7 C 15.3 -9.8 13.4 -3.75 13.8 0 L 12.25 0 L 12.25 -6.05 C 12.25 -7.5 12 -8.5 10.5 -8.45"/>
        <path d="M 19.95 -9.7 C 23.1 -9.7 24.25 -7.6 24.15 -4.4 L 17.4 -4.4 C 17.4 -2.4 18.1 -1.05 20.05 -1 C 21.35 -0.95 22.2 -1.6 22.5 -2.45 L 23.9 -2.05 C 23.35 -0.65 22.05 0.2 20.05 0.2 C 17.15 0.2 15.65 -1.65 15.7 -4.8 C 15.75 -7.85 17 -9.7 19.95 -9.7 Z M 22.55 -5.65 C 22.85 -8.65 18.75 -9.5 17.7 -7.05 C 17.55 -6.7 17.4 -6.2 17.4 -5.65 L 22.55 -5.65"/>
        <path d="M 31.7 -7.15 C 31.55 -8.85 27.4 -9.05 27.35 -7.15 C 28.1 -4.5 33.1 -6.55 33.3 -2.65 C 33.5 1.25 25.8 1.05 25.45 -2.25 L 26.85 -2.5 C 27.05 -0.7 31.7 -0.25 31.75 -2.5 C 31.25 -5.3 26.1 -3.25 25.85 -7 C 25.65 -9.85 29.95 -10.15 31.95 -9.1 C 32.55 -8.75 33 -8.15 33.15 -7.35"/>
        <path d="M 40.7 -7.15 C 40.55 -8.85 36.4 -9.05 36.35 -7.15 C 37.1 -4.5 42.1 -6.55 42.3 -2.65 C 42.5 1.25 34.8 1.05 34.45 -2.25 L 35.85 -2.5 C 36.05 -0.7 40.7 -0.25 40.75 -2.5 C 40.25 -5.3 35.1 -3.25 34.85 -7 C 34.65 -9.85 38.95 -10.15 40.95 -9.1 C 41.55 -8.75 42 -8.15 42.15 -7.35"/>
        <path d="M 47.95 -9.7 C 51.1 -9.7 52.25 -7.6 52.15 -4.4 L 45.4 -4.4 C 45.4 -2.4 46.1 -1.05 48.05 -1 C 49.35 -0.95 50.2 -1.6 50.5 -2.45 L 51.9 -2.05 C 51.35 -0.65 50.05 0.2 48.05 0.2 C 45.15 0.2 43.65 -1.65 43.7 -4.8 C 43.75 -7.85 45 -9.7 47.95 -9.7 Z M 50.55 -5.65 C 50.85 -8.65 46.75 -9.5 45.7 -7.05 C 45.55 -6.7 45.4 -6.2 45.4 -5.65 L 50.55 -5.65"/>
        <g transform="matrix(0.05, 0, 0, 0.05, 52.95, 0)">
          <path d="M 8 -6.55 C 9.75 -6.3 11.05 -5.4 11.05 -3.5 C 11.05 0.85 5.75 -0.1 1.5 0 L 1.5 -12.4 C 5.3 -12.25 10.35 -13.25 10.35 -9.4 C 10.35 -7.75 9.4 -6.9 8 -6.55 Z M 3.15 -7.1 C 5.65 -7.15 8.65 -6.65 8.65 -9.2 C 8.65 -11.55 5.5 -11 3.15 -11.05 L 3.15 -7.1 Z M 3.15 -1.35 C 5.9 -1.45 9.35 -0.65 9.35 -3.6 C 9.35 -6.4 5.85 -5.7 3.15 -5.8 L 3.15 -1.35"/>
          <path d="M 17.7 -8.15 C 13.8 -8.95 15.05 -3.6 14.85 0 L 13.25 0 L 13.2 -9.5 L 14.7 -9.5 C 14.75 -8.9 14.65 -8.05 14.8 -7.55 C 15.1 -8.9 15.95 -10 17.7 -9.6 L 17.7 -8.15"/>
          <path d="M 22.95 -9.7 C 26.1 -9.7 27.25 -7.6 27.15 -4.4 L 20.4 -4.4 C 20.4 -2.4 21.1 -1.05 23.05 -1 C 24.35 -0.95 25.2 -1.6 25.5 -2.45 L 26.9 -2.05 C 26.35 -0.65 25.05 0.2 23.05 0.2 C 20.15 0.2 18.65 -1.65 18.7 -4.8 C 18.75 -7.85 20 -9.7 22.95 -9.7 Z M 25.55 -5.65 C 25.85 -8.65 21.75 -9.5 20.7 -7.05 C 20.55 -6.7 20.4 -6.2 20.4 -5.65 L 25.55 -5.65"/>
          <path d="M 38.45 -8.45 C 35.1 -8.3 36.55 -3.2 36.25 0 L 34.7 0 L 34.7 -6.05 C 34.7 -7.5 34.45 -8.55 32.95 -8.45 C 29.65 -8.25 31.05 -3.25 30.75 0 L 29.2 0 L 29.15 -9.5 L 30.65 -9.5 C 30.7 -9 30.6 -8.3 30.75 -7.9 C 31.25 -10.1 35.7 -10.4 36.1 -7.9 C 36.65 -8.95 37.45 -9.65 39 -9.7 C 43.25 -9.8 41.35 -3.75 41.75 0 L 40.2 0 L 40.2 -6.05 C 40.2 -7.5 39.95 -8.5 38.45 -8.45"/>
          <path d="M 49.65 -7.15 C 49.5 -8.85 45.35 -9.05 45.3 -7.15 C 46.05 -4.5 51.05 -6.55 51.25 -2.65 C 51.45 1.25 43.75 1.05 43.4 -2.25 L 44.8 -2.5 C 45 -0.7 49.65 -0.25 49.7 -2.5 C 49.2 -5.3 44.05 -3.25 43.8 -7 C 43.6 -9.85 47.9 -10.15 49.9 -9.1 C 50.5 -8.75 50.95 -8.15 51.1 -7.35"/>
          <path d="M 58.95 -1.8 C 58.2 -0.75 57.4 0.25 55.55 0.2 C 53.75 0.15 52.65 -0.85 52.65 -2.65 C 52.6 -5.85 55.8 -5.8 58.9 -5.8 C 59.05 -7.55 58.45 -8.5 56.85 -8.5 C 55.65 -8.45 54.8 -8.15 54.75 -6.95 L 53.1 -7.1 C 53.35 -8.95 54.75 -9.7 56.9 -9.7 C 59.15 -9.7 60.5 -8.7 60.5 -6.5 L 60.5 -2.4 C 60.45 -1.4 60.85 -0.8 61.9 -1.05 L 61.9 -0.05 C 60.35 0.4 58.85 -0.15 58.95 -1.8 Z M 54.3 -2.65 C 54.3 -1.65 54.9 -1 55.9 -1 C 57.95 -1.15 59.05 -2.45 58.9 -4.7 C 56.75 -4.6 54.3 -4.95 54.3 -2.65"/>
          <path d="M 67.6 -8.15 C 63.7 -8.95 64.95 -3.6 64.75 0 L 63.15 0 L 63.1 -9.5 L 64.6 -9.5 C 64.65 -8.9 64.55 -8.05 64.7 -7.55 C 65 -8.9 65.85 -10 67.6 -9.6 L 67.6 -8.15"/>
          <path d="M 70.8 -2.35 C 70.7 -1.15 71.7 -0.9 72.7 -1.25 L 72.7 -0.05 C 71.05 0.45 69.2 0.2 69.2 -2 L 69.2 -8.35 L 68.1 -8.35 L 68.1 -9.5 L 69.3 -9.5 L 69.75 -11.65 L 70.8 -11.65 L 70.8 -9.5 L 72.55 -9.5 L 72.55 -8.35 L 70.8 -8.35 L 70.8 -2.35"/>
        </g>
      </g>
      <path d="M205 0l-28-72H64L36 0H1l101-248h38L239 0h-34zm-38-99l-47-123c-12 45-31 82-46 123h93" id="P"/>
      <path d="M194 0L95-120 63-95V0H30v-248h33v124l119-124h40L117-140 236 0h-42" id="Q"/>
      <g id="j">
        <path d="M 10.25 0 L 8.85 -3.6 L 3.2 -3.6 L 1.8 0 L 0.05 0 L 5.1 -12.4 L 7 -12.4 L 11.95 0 L 10.25 0 Z M 8.35 -4.95 L 6 -11.1 C 5.4 -8.85 4.45 -7 3.7 -4.95 L 8.35 -4.95"/>
        <path d="M 12.8 -4.1 L 12.8 -5.5 L 17.2 -5.5 L 17.2 -4.1 L 12.8 -4.1"/>
        <path d="M 27.65 0 L 22.7 -6 L 21.1 -4.75 L 21.1 0 L 19.45 0 L 19.45 -12.4 L 21.1 -12.4 L 21.1 -6.2 L 27.05 -12.4 L 29.05 -12.4 L 23.8 -7 L 29.75 0 L 27.65 0"/>
        <path d="M 37 -1.8 C 36.25 -0.75 35.45 0.25 33.6 0.2 C 31.8 0.15 30.7 -0.85 30.7 -2.65 C 30.65 -5.85 33.85 -5.8 36.95 -5.8 C 37.1 -7.55 36.5 -8.5 34.9 -8.5 C 33.7 -8.45 32.85 -8.15 32.8 -6.95 L 31.15 -7.1 C 31.4 -8.95 32.8 -9.7 34.95 -9.7 C 37.2 -9.7 38.55 -8.7 38.55 -6.5 L 38.55 -2.4 C 38.5 -1.4 38.9 -0.8 39.95 -1.05 L 39.95 -0.05 C 38.4 0.4 36.9 -0.15 37 -1.8 Z M 32.35 -2.65 C 32.35 -1.65 32.95 -1 33.95 -1 C 36 -1.15 37.1 -2.45 36.95 -4.7 C 34.8 -4.6 32.35 -4.95 32.35 -2.65"/>
        <path d="M 50.45 -8.45 C 47.1 -8.3 48.55 -3.2 48.25 0 L 46.7 0 L 46.7 -6.05 C 46.7 -7.5 46.45 -8.55 44.95 -8.45 C 41.65 -8.25 43.05 -3.25 42.75 0 L 41.2 0 L 41.15 -9.5 L 42.65 -9.5 C 42.7 -9 42.6 -8.3 42.75 -7.9 C 43.25 -10.1 47.7 -10.4 48.1 -7.9 C 48.65 -8.95 49.45 -9.65 51 -9.7 C 55.25 -9.8 53.35 -3.75 53.75 0 L 52.2 0 L 52.2 -6.05 C 52.2 -7.5 51.95 -8.5 50.45 -8.45"/>
        <path d="M 65.4 -8.45 C 62.05 -8.3 63.5 -3.2 63.2 0 L 61.65 0 L 61.65 -6.05 C 61.65 -7.5 61.4 -8.55 59.9 -8.45 C 56.6 -8.25 58 -3.25 57.7 0 L 56.15 0 L 56.1 -9.5 L 57.6 -9.5 C 57.65 -9 57.55 -8.3 57.7 -7.9 C 58.2 -10.1 62.65 -10.4 63.05 -7.9 C 63.6 -8.95 64.4 -9.65 65.95 -9.7 C 70.2 -9.8 68.3 -3.75 68.7 0 L 67.15 0 L 67.15 -6.05 C 67.15 -7.5 66.9 -8.5 65.4 -8.45"/>
        <path d="M 74.85 -9.7 C 78 -9.7 79.15 -7.6 79.05 -4.4 L 72.3 -4.4 C 72.3 -2.4 73 -1.05 74.95 -1 C 76.25 -0.95 77.1 -1.6 77.4 -2.45 L 78.8 -2.05 C 78.25 -0.65 76.95 0.2 74.95 0.2 C 72.05 0.2 70.55 -1.65 70.6 -4.8 C 70.65 -7.85 71.9 -9.7 74.85 -9.7 Z M 77.45 -5.65 C 77.75 -8.65 73.65 -9.5 72.6 -7.05 C 72.45 -6.7 72.3 -6.2 72.3 -5.65 L 77.45 -5.65"/>
        <path d="M 85.55 -8.15 C 81.65 -8.95 82.9 -3.6 82.7 0 L 81.1 0 L 81.05 -9.5 L 82.55 -9.5 C 82.6 -8.9 82.5 -8.05 82.65 -7.55 C 82.95 -8.9 83.8 -10 85.55 -9.6 L 85.55 -8.15"/>
      </g>
      <path d="M85 4C-4 8 31-112 24-190h32v120c0 31 7 50 39 49 72-2 45-101 50-169h31l1 190h-30c-1-10 1-25-2-33-11 22-28 36-60 37zm34-218v-33h29v33h-29zm-69 0v-33h29v33H50" id="R"/>
      <path d="M101-234c-31-9-42 10-38 44h38v23H63V0H32v-167H5v-23h27c-7-52 17-82 69-68v24" id="S"/>
      <g id="k">
        <path d="M 5 -9.7 C 8.15 -9.7 9.3 -7.6 9.2 -4.4 L 2.45 -4.4 C 2.45 -2.4 3.15 -1.05 5.1 -1 C 6.4 -0.95 7.25 -1.6 7.55 -2.45 L 8.95 -2.05 C 8.4 -0.65 7.1 0.2 5.1 0.2 C 2.2 0.2 0.7 -1.65 0.75 -4.8 C 0.8 -7.85 2.05 -9.7 5 -9.7 Z M 7.6 -5.65 C 7.9 -8.65 3.8 -9.5 2.75 -7.05 C 2.6 -6.7 2.45 -6.2 2.45 -5.65 L 7.6 -5.65"/>
        <g transform="matrix(0.05, 0, 0, 0.05, 10, 0)">
          <path d="M 8 -6.55 C 9.75 -6.3 11.05 -5.4 11.05 -3.5 C 11.05 0.85 5.75 -0.1 1.5 0 L 1.5 -12.4 C 5.3 -12.25 10.35 -13.25 10.35 -9.4 C 10.35 -7.75 9.4 -6.9 8 -6.55 Z M 3.15 -7.1 C 5.65 -7.15 8.65 -6.65 8.65 -9.2 C 8.65 -11.55 5.5 -11 3.15 -11.05 L 3.15 -7.1 Z M 3.15 -1.35 C 5.9 -1.45 9.35 -0.65 9.35 -3.6 C 9.35 -6.4 5.85 -5.7 3.15 -5.8 L 3.15 -1.35"/>
          <path d="M 17.7 -8.15 C 13.8 -8.95 15.05 -3.6 14.85 0 L 13.25 0 L 13.2 -9.5 L 14.7 -9.5 C 14.75 -8.9 14.65 -8.05 14.8 -7.55 C 15.1 -8.9 15.95 -10 17.7 -9.6 L 17.7 -8.15"/>
          <path d="M 22.95 -9.7 C 26.1 -9.7 27.25 -7.6 27.15 -4.4 L 20.4 -4.4 C 20.4 -2.4 21.1 -1.05 23.05 -1 C 24.35 -0.95 25.2 -1.6 25.5 -2.45 L 26.9 -2.05 C 26.35 -0.65 25.05 0.2 23.05 0.2 C 20.15 0.2 18.65 -1.65 18.7 -4.8 C 18.75 -7.85 20 -9.7 22.95 -9.7 Z M 25.55 -5.65 C 25.85 -8.65 21.75 -9.5 20.7 -7.05 C 20.55 -6.7 20.4 -6.2 20.4 -5.65 L 25.55 -5.65"/>
          <path d="M 38.45 -8.45 C 35.1 -8.3 36.55 -3.2 36.25 0 L 34.7 0 L 34.7 -6.05 C 34.7 -7.5 34.45 -8.55 32.95 -8.45 C 29.65 -8.25 31.05 -3.25 30.75 0 L 29.2 0 L 29.15 -9.5 L 30.65 -9.5 C 30.7 -9 30.6 -8.3 30.75 -7.9 C 31.25 -10.1 35.7 -10.4 36.1 -7.9 C 36.65 -8.95 37.45 -9.65 39 -9.7 C 43.25 -9.8 41.35 -3.75 41.75 0 L 40.2 0 L 40.2 -6.05 C 40.2 -7.5 39.95 -8.5 38.45 -8.45"/>
          <path d="M 49.65 -7.15 C 49.5 -8.85 45.35 -9.05 45.3 -7.15 C 46.05 -4.5 51.05 -6.55 51.25 -2.65 C 51.45 1.25 43.75 1.05 43.4 -2.25 L 44.8 -2.5 C 45 -0.7 49.65 -0.25 49.7 -2.5 C 49.2 -5.3 44.05 -3.25 43.8 -7 C 43.6 -9.85 47.9 -10.15 49.9 -9.1 C 50.5 -8.75 50.95 -8.15 51.1 -7.35"/>
          <path d="M 58.95 -1.8 C 58.2 -0.75 57.4 0.25 55.55 0.2 C 53.75 0.15 52.65 -0.85 52.65 -2.65 C 52.6 -5.85 55.8 -5.8 58.9 -5.8 C 59.05 -7.55 58.45 -8.5 56.85 -8.5 C 55.65 -8.45 54.8 -8.15 54.75 -6.95 L 53.1 -7.1 C 53.35 -8.95 54.75 -9.7 56.9 -9.7 C 59.15 -9.7 60.5 -8.7 60.5 -6.5 L 60.5 -2.4 C 60.45 -1.4 60.85 -0.8 61.9 -1.05 L 61.9 -0.05 C 60.35 0.4 58.85 -0.15 58.95 -1.8 Z M 54.3 -2.65 C 54.3 -1.65 54.9 -1 55.9 -1 C 57.95 -1.15 59.05 -2.45 58.9 -4.7 C 56.75 -4.6 54.3 -4.95 54.3 -2.65"/>
          <path d="M 67.6 -8.15 C 63.7 -8.95 64.95 -3.6 64.75 0 L 63.15 0 L 63.1 -9.5 L 64.6 -9.5 C 64.65 -8.9 64.55 -8.05 64.7 -7.55 C 65 -8.9 65.85 -10 67.6 -9.6 L 67.6 -8.15"/>
          <path d="M 70.8 -2.35 C 70.7 -1.15 71.7 -0.9 72.7 -1.25 L 72.7 -0.05 C 71.05 0.45 69.2 0.2 69.2 -2 L 69.2 -8.35 L 68.1 -8.35 L 68.1 -9.5 L 69.3 -9.5 L 69.75 -11.65 L 70.8 -11.65 L 70.8 -9.5 L 72.55 -9.5 L 72.55 -8.35 L 70.8 -8.35 L 70.8 -2.35"/>
        </g>
        <path d="M 22.95 -2.35 C 22.85 -1.15 23.85 -0.9 24.85 -1.25 L 24.85 -0.05 C 23.2 0.45 21.35 0.2 21.35 -2 L 21.35 -8.35 L 20.25 -8.35 L 20.25 -9.5 L 21.45 -9.5 L 21.9 -11.65 L 22.95 -11.65 L 22.95 -9.5 L 24.7 -9.5 L 24.7 -8.35 L 22.95 -8.35 L 22.95 -2.35"/>
        <path d="M 26.2 0 L 26.2 -13.05 L 27.8 -13.05 L 27.8 0 L 26.2 0"/>
        <path d="M 33.2 0.2 C 28.75 0.4 30.5 -5.6 30.15 -9.5 L 31.75 -9.5 L 31.75 -3.5 C 31.75 -1.95 32.1 -1 33.7 -1.05 C 37.3 -1.15 35.95 -6.1 36.2 -9.5 L 37.75 -9.5 L 37.8 0 L 36.3 0 C 36.25 -0.5 36.35 -1.25 36.2 -1.65 C 35.65 -0.55 34.8 0.15 33.2 0.2 Z M 34.9 -10.7 L 34.9 -12.35 L 36.35 -12.35 L 36.35 -10.7 L 34.9 -10.7 Z M 31.45 -10.7 L 31.45 -12.35 L 32.9 -12.35 L 32.9 -10.7 L 31.45 -10.7"/>
        <path d="M 46.95 -6.55 C 48.7 -6.3 50 -5.4 50 -3.5 C 50 0.85 44.7 -0.1 40.45 0 L 40.45 -12.4 C 44.25 -12.25 49.3 -13.25 49.3 -9.4 C 49.3 -7.75 48.35 -6.9 46.95 -6.55 Z M 42.1 -7.1 C 44.6 -7.15 47.6 -6.65 47.6 -9.2 C 47.6 -11.55 44.45 -11 42.1 -11.05 L 42.1 -7.1 Z M 42.1 -1.35 C 44.85 -1.45 48.3 -0.65 48.3 -3.6 C 48.3 -6.4 44.8 -5.7 42.1 -5.8 L 42.1 -1.35"/>
        <path d="M 46.9 -2.35 C 46.8 -1.15 47.8 -0.9 48.8 -1.25 L 48.8 -0.05 C 47.15 0.45 45.3 0.2 45.3 -2 L 45.3 -8.35 L 44.2 -8.35 L 44.2 -9.5 L 45.4 -9.5 L 45.85 -11.65 L 46.9 -11.65 L 46.9 -9.5 L 48.65 -9.5 L 48.65 -8.35 L 46.9 -8.35 L 46.9 -2.35"/>
        <path d="M 53.95 -9.7 C 57.1 -9.7 58.25 -7.6 58.15 -4.4 L 51.4 -4.4 C 51.4 -2.4 52.1 -1.05 54.05 -1 C 55.35 -0.95 56.2 -1.6 56.5 -2.45 L 57.9 -2.05 C 57.35 -0.65 56.05 0.2 54.05 0.2 C 51.15 0.2 49.65 -1.65 49.7 -4.8 C 49.75 -7.85 51 -9.7 53.95 -9.7 Z M 56.55 -5.65 C 56.85 -8.65 52.75 -9.5 51.7 -7.05 C 51.55 -6.7 51.4 -6.2 51.4 -5.65 L 56.55 -5.65"/>
        <g transform="matrix(0.05, 0, 0, 0.05, 58.95, 0)">
          <path d="M 8 -6.55 C 9.75 -6.3 11.05 -5.4 11.05 -3.5 C 11.05 0.85 5.75 -0.1 1.5 0 L 1.5 -12.4 C 5.3 -12.25 10.35 -13.25 10.35 -9.4 C 10.35 -7.75 9.4 -6.9 8 -6.55 Z M 3.15 -7.1 C 5.65 -7.15 8.65 -6.65 8.65 -9.2 C 8.65 -11.55 5.5 -11 3.15 -11.05 L 3.15 -7.1 Z M 3.15 -1.35 C 5.9 -1.45 9.35 -0.65 9.35 -3.6 C 9.35 -6.4 5.85 -5.7 3.15 -5.8 L 3.15 -1.35"/>
          <path d="M 17.7 -8.15 C 13.8 -8.95 15.05 -3.6 14.85 0 L 13.25 0 L 13.2 -9.5 L 14.7 -9.5 C 14.75 -8.9 14.65 -8.05 14.8 -7.55 C 15.1 -8.9 15.95 -10 17.7 -9.6 L 17.7 -8.15"/>
          <path d="M 22.95 -9.7 C 26.1 -9.7 27.25 -7.6 27.15 -4.4 L 20.4 -4.4 C 20.4 -2.4 21.1 -1.05 23.05 -1 C 24.35 -0.95 25.2 -1.6 25.5 -2.45 L 26.9 -2.05 C 26.35 -0.65 25.05 0.2 23.05 0.2 C 20.15 0.2 18.65 -1.65 18.7 -4.8 C 18.75 -7.85 20 -9.7 22.95 -9.7 Z M 25.55 -5.65 C 25.85 -8.65 21.75 -9.5 20.7 -7.05 C 20.55 -6.7 20.4 -6.2 20.4 -5.65 L 25.55 -5.65"/>
          <path d="M 38.45 -8.45 C 35.1 -8.3 36.55 -3.2 36.25 0 L 34.7 0 L 34.7 -6.05 C 34.7 -7.5 34.45 -8.55 32.95 -8.45 C 29.65 -8.25 31.05 -3.25 30.75 0 L 29.2 0 L 29.15 -9.5 L 30.65 -9.5 C 30.7 -9 30.6 -8.3 30.75 -7.9 C 31.25 -10.1 35.7 -10.4 36.1 -7.9 C 36.65 -8.95 37.45 -9.65 39 -9.7 C 43.25 -9.8 41.35 -3.75 41.75 0 L 40.2 0 L 40.2 -6.05 C 40.2 -7.5 39.95 -8.5 38.45 -8.45"/>
          <path d="M 49.65 -7.15 C 49.5 -8.85 45.35 -9.05 45.3 -7.15 C 46.05 -4.5 51.05 -6.55 51.25 -2.65 C 51.45 1.25 43.75 1.05 43.4 -2.25 L 44.8 -2.5 C 45 -0.7 49.65 -0.25 49.7 -2.5 C 49.2 -5.3 44.05 -3.25 43.8 -7 C 43.6 -9.85 47.9 -10.15 49.9 -9.1 C 50.5 -8.75 50.95 -8.15 51.1 -7.35"/>
          <path d="M 58.95 -1.8 C 58.2 -0.75 57.4 0.25 55.55 0.2 C 53.75 0.15 52.65 -0.85 52.65 -2.65 C 52.6 -5.85 55.8 -5.8 58.9 -5.8 C 59.05 -7.55 58.45 -8.5 56.85 -8.5 C 55.65 -8.45 54.8 -8.15 54.75 -6.95 L 53.1 -7.1 C 53.35 -8.95 54.75 -9.7 56.9 -9.7 C 59.15 -9.7 60.5 -8.7 60.5 -6.5 L 60.5 -2.4 C 60.45 -1.4 60.85 -0.8 61.9 -1.05 L 61.9 -0.05 C 60.35 0.4 58.85 -0.15 58.95 -1.8 Z M 54.3 -2.65 C 54.3 -1.65 54.9 -1 55.9 -1 C 57.95 -1.15 59.05 -2.45 58.9 -4.7 C 56.75 -4.6 54.3 -4.95 54.3 -2.65"/>
          <path d="M 67.6 -8.15 C 63.7 -8.95 64.95 -3.6 64.75 0 L 63.15 0 L 63.1 -9.5 L 64.6 -9.5 C 64.65 -8.9 64.55 -8.05 64.7 -7.55 C 65 -8.9 65.85 -10 67.6 -9.6 L 67.6 -8.15"/>
          <path d="M 70.8 -2.35 C 70.7 -1.15 71.7 -0.9 72.7 -1.25 L 72.7 -0.05 C 71.05 0.45 69.2 0.2 69.2 -2 L 69.2 -8.35 L 68.1 -8.35 L 68.1 -9.5 L 69.3 -9.5 L 69.75 -11.65 L 70.8 -11.65 L 70.8 -9.5 L 72.55 -9.5 L 72.55 -8.35 L 70.8 -8.35 L 70.8 -2.35"/>
        </g>
      </g>
      <path d="M115-194c55 1 70 41 70 98S169 2 115 4C84 4 66-9 55-30l1 105H24l-1-265h31l2 30c10-21 28-34 59-34zm-8 174c40 0 45-34 45-75s-6-73-45-74c-42 0-51 32-51 76 0 43 10 73 51 73" id="T"/>
      <g id="l">
        <path d="M 5 -9.7 C 8.15 -9.7 9.3 -7.6 9.2 -4.4 L 2.45 -4.4 C 2.45 -2.4 3.15 -1.05 5.1 -1 C 6.4 -0.95 7.25 -1.6 7.55 -2.45 L 8.95 -2.05 C 8.4 -0.65 7.1 0.2 5.1 0.2 C 2.2 0.2 0.7 -1.65 0.75 -4.8 C 0.8 -7.85 2.05 -9.7 5 -9.7 Z M 7.6 -5.65 C 7.9 -8.65 3.8 -9.5 2.75 -7.05 C 2.6 -6.7 2.45 -6.2 2.45 -5.65 L 7.6 -5.65"/>
        <path d="M 15.7 -8.15 C 11.8 -8.95 13.05 -3.6 12.85 0 L 11.25 0 L 11.2 -9.5 L 12.7 -9.5 C 12.75 -8.9 12.65 -8.05 12.8 -7.55 C 13.1 -8.9 13.95 -10 15.7 -9.6 L 15.7 -8.15"/>
        <path d="M 20.8 -4.1 L 20.8 -5.5 L 25.2 -5.5 L 25.2 -4.1 L 20.8 -4.1"/>
        <path d="M 33.95 -6.55 C 35.7 -6.3 37 -5.4 37 -3.5 C 37 0.85 31.7 -0.1 27.45 0 L 27.45 -12.4 C 31.25 -12.25 36.3 -13.25 36.3 -9.4 C 36.3 -7.75 35.35 -6.9 33.95 -6.55 Z M 29.1 -7.1 C 31.6 -7.15 34.6 -6.65 34.6 -9.2 C 34.6 -11.55 31.45 -11 29.1 -11.05 L 29.1 -7.1 Z M 29.1 -1.35 C 31.85 -1.45 35.3 -0.65 35.3 -3.6 C 35.3 -6.4 31.8 -5.7 29.1 -5.8 L 29.1 -1.35"/>
        <path d="M 43.65 -8.15 C 39.75 -8.95 41 -3.6 40.8 0 L 39.2 0 L 39.15 -9.5 L 40.65 -9.5 C 40.7 -8.9 40.6 -8.05 40.75 -7.55 C 41.05 -8.9 41.9 -10 43.65 -9.6 L 43.65 -8.15"/>
        <path d="M 48.9 -9.7 C 52.05 -9.7 53.2 -7.6 53.1 -4.4 L 46.35 -4.4 C 46.35 -2.4 47.05 -1.05 49 -1 C 50.3 -0.95 51.15 -1.6 51.45 -2.45 L 52.85 -2.05 C 52.3 -0.65 51 0.2 49 0.2 C 46.1 0.2 44.6 -1.65 44.65 -4.8 C 44.7 -7.85 45.95 -9.7 48.9 -9.7 Z M 51.5 -5.65 C 51.8 -8.65 47.7 -9.5 46.65 -7.05 C 46.5 -6.7 46.35 -6.2 46.35 -5.65 L 51.5 -5.65"/>
        <path d="M 64.4 -8.45 C 61.05 -8.3 62.5 -3.2 62.2 0 L 60.65 0 L 60.65 -6.05 C 60.65 -7.5 60.4 -8.55 58.9 -8.45 C 55.6 -8.25 57 -3.25 56.7 0 L 55.15 0 L 55.1 -9.5 L 56.6 -9.5 C 56.65 -9 56.55 -8.3 56.7 -7.9 C 57.2 -10.1 61.65 -10.4 62.05 -7.9 C 62.6 -8.95 63.4 -9.65 64.95 -9.7 C 69.2 -9.8 67.3 -3.75 67.7 0 L 66.15 0 L 66.15 -6.05 C 66.15 -7.5 65.9 -8.5 64.4 -8.45"/>
        <path d="M 75.6 -7.15 C 75.45 -8.85 71.3 -9.05 71.25 -7.15 C 72 -4.5 77 -6.55 77.2 -2.65 C 77.4 1.25 69.7 1.05 69.35 -2.25 L 70.75 -2.5 C 70.95 -0.7 75.6 -0.25 75.65 -2.5 C 75.15 -5.3 70 -3.25 69.75 -7 C 69.55 -9.85 73.85 -10.15 75.85 -9.1 C 76.45 -8.75 76.9 -8.15 77.05 -7.35"/>
        <path d="M 82.85 -9.7 C 86 -9.7 87.15 -7.6 87.05 -4.4 L 80.3 -4.4 C 80.3 -2.4 81 -1.05 82.95 -1 C 84.25 -0.95 85.1 -1.6 85.4 -2.45 L 86.8 -2.05 C 86.25 -0.65 84.95 0.2 82.95 0.2 C 80.05 0.2 78.55 -1.65 78.6 -4.8 C 78.65 -7.85 79.9 -9.7 82.85 -9.7 Z M 85.45 -5.65 C 85.75 -8.65 81.65 -9.5 80.6 -7.05 C 80.45 -6.7 80.3 -6.2 80.3 -5.65 L 85.45 -5.65"/>
        <g transform="matrix(0.05, 0, 0, 0.05, 87.85, 0)">
          <path d="M 8 -6.55 C 9.75 -6.3 11.05 -5.4 11.05 -3.5 C 11.05 0.85 5.75 -0.1 1.5 0 L 1.5 -12.4 C 5.3 -12.25 10.35 -13.25 10.35 -9.4 C 10.35 -7.75 9.4 -6.9 8 -6.55 Z M 3.15 -7.1 C 5.65 -7.15 8.65 -6.65 8.65 -9.2 C 8.65 -11.55 5.5 -11 3.15 -11.05 L 3.15 -7.1 Z M 3.15 -1.35 C 5.9 -1.45 9.35 -0.65 9.35 -3.6 C 9.35 -6.4 5.85 -5.7 3.15 -5.8 L 3.15 -1.35"/>
          <path d="M 17.7 -8.15 C 13.8 -8.95 15.05 -3.6 14.85 0 L 13.25 0 L 13.2 -9.5 L 14.7 -9.5 C 14.75 -8.9 14.65 -8.05 14.8 -7.55 C 15.1 -8.9 15.95 -10 17.7 -9.6 L 17.7 -8.15"/>
          <path d="M 22.95 -9.7 C 26.1 -9.7 27.25 -7.6 27.15 -4.4 L 20.4 -4.4 C 20.4 -2.4 21.1 -1.05 23.05 -1 C 24.35 -0.95 25.2 -1.6 25.5 -2.45 L 26.9 -2.05 C 26.35 -0.65 25.05 0.2 23.05 0.2 C 20.15 0.2 18.65 -1.65 18.7 -4.8 C 18.75 -7.85 20 -9.7 22.95 -9.7 Z M 25.55 -5.65 C 25.85 -8.65 21.75 -9.5 20.7 -7.05 C 20.55 -6.7 20.4 -6.2 20.4 -5.65 L 25.55 -5.65"/>
          <path d="M 38.45 -8.45 C 35.1 -8.3 36.55 -3.2 36.25 0 L 34.7 0 L 34.7 -6.05 C 34.7 -7.5 34.45 -8.55 32.95 -8.45 C 29.65 -8.25 31.05 -3.25 30.75 0 L 29.2 0 L 29.15 -9.5 L 30.65 -9.5 C 30.7 -9 30.6 -8.3 30.75 -7.9 C 31.25 -10.1 35.7 -10.4 36.1 -7.9 C 36.65 -8.95 37.45 -9.65 39 -9.7 C 43.25 -9.8 41.35 -3.75 41.75 0 L 40.2 0 L 40.2 -6.05 C 40.2 -7.5 39.95 -8.5 38.45 -8.45"/>
          <path d="M 49.65 -7.15 C 49.5 -8.85 45.35 -9.05 45.3 -7.15 C 46.05 -4.5 51.05 -6.55 51.25 -2.65 C 51.45 1.25 43.75 1.05 43.4 -2.25 L 44.8 -2.5 C 45 -0.7 49.65 -0.25 49.7 -2.5 C 49.2 -5.3 44.05 -3.25 43.8 -7 C 43.6 -9.85 47.9 -10.15 49.9 -9.1 C 50.5 -8.75 50.95 -8.15 51.1 -7.35"/>
          <path d="M 58.95 -1.8 C 58.2 -0.75 57.4 0.25 55.55 0.2 C 53.75 0.15 52.65 -0.85 52.65 -2.65 C 52.6 -5.85 55.8 -5.8 58.9 -5.8 C 59.05 -7.55 58.45 -8.5 56.85 -8.5 C 55.65 -8.45 54.8 -8.15 54.75 -6.95 L 53.1 -7.1 C 53.35 -8.95 54.75 -9.7 56.9 -9.7 C 59.15 -9.7 60.5 -8.7 60.5 -6.5 L 60.5 -2.4 C 60.45 -1.4 60.85 -0.8 61.9 -1.05 L 61.9 -0.05 C 60.35 0.4 58.85 -0.15 58.95 -1.8 Z M 54.3 -2.65 C 54.3 -1.65 54.9 -1 55.9 -1 C 57.95 -1.15 59.05 -2.45 58.9 -4.7 C 56.75 -4.6 54.3 -4.95 54.3 -2.65"/>
          <path d="M 67.6 -8.15 C 63.7 -8.95 64.95 -3.6 64.75 0 L 63.15 0 L 63.1 -9.5 L 64.6 -9.5 C 64.65 -8.9 64.55 -8.05 64.7 -7.55 C 65 -8.9 65.85 -10 67.6 -9.6 L 67.6 -8.15"/>
          <path d="M 70.8 -2.35 C 70.7 -1.15 71.7 -0.9 72.7 -1.25 L 72.7 -0.05 C 71.05 0.45 69.2 0.2 69.2 -2 L 69.2 -8.35 L 68.1 -8.35 L 68.1 -9.5 L 69.3 -9.5 L 69.75 -11.65 L 70.8 -11.65 L 70.8 -9.5 L 72.55 -9.5 L 72.55 -8.35 L 70.8 -8.35 L 70.8 -2.35"/>
        </g>
      </g>
      <path d="M232-93c-1 65-40 97-104 97C67 4 28-28 28-90v-158h33c8 89-33 224 67 224 102 0 64-133 71-224h33v155" id="U"/>
      <path d="M33 0v-248h34V0H33" id="V"/>
      <g id="m">
        <path d="M 5 -9.7 C 8.15 -9.7 9.3 -7.6 9.2 -4.4 L 2.45 -4.4 C 2.45 -2.4 3.15 -1.05 5.1 -1 C 6.4 -0.95 7.25 -1.6 7.55 -2.45 L 8.95 -2.05 C 8.4 -0.65 7.1 0.2 5.1 0.2 C 2.2 0.2 0.7 -1.65 0.75 -4.8 C 0.8 -7.85 2.05 -9.7 5 -9.7 Z M 7.6 -5.65 C 7.9 -8.65 3.8 -9.5 2.75 -7.05 C 2.6 -6.7 2.45 -6.2 2.45 -5.65 L 7.6 -5.65"/>
        <path d="M 23.45 -8.45 C 20.1 -8.3 21.55 -3.2 21.25 0 L 19.7 0 L 19.7 -6.05 C 19.7 -7.5 19.45 -8.55 17.95 -8.45 C 14.65 -8.25 16.05 -3.25 15.75 0 L 14.2 0 L 14.15 -9.5 L 15.65 -9.5 C 15.7 -9 15.6 -8.3 15.75 -7.9 C 16.25 -10.1 20.7 -10.4 21.1 -7.9 C 21.65 -8.95 22.45 -9.65 24 -9.7 C 28.25 -9.8 26.35 -3.75 26.75 0 L 25.2 0 L 25.2 -6.05 C 25.2 -7.5 24.95 -8.5 23.45 -8.45"/>
        <path d="M 28.55 -8.95 C 28.05 -10.35 26.8 -11.2 24.9 -11.2 C 21.95 -11.2 20.55 -9.2 20.55 -6.25 C 20.55 -3.25 22 -1.2 25 -1.2 C 27.15 -1.2 28.1 -2.4 28.9 -3.8 L 30.25 -3.1 C 29.35 -1.2 27.7 0.2 24.9 0.2 C 20.9 0.2 19.05 -2.3 18.85 -6.25 C 18.55 -11.45 23.8 -13.9 28.2 -11.8 C 29.15 -11.35 29.75 -10.5 30.15 -9.5"/>
      </g>
      <path d="M143 4C61 4 22-44 18-125c-5-107 100-154 193-111 17 8 29 25 37 43l-32 9c-13-25-37-40-76-40-61 0-88 39-88 99 0 61 29 100 91 101 35 0 62-11 79-27v-45h-74v-28h105v86C228-13 192 4 143 4" id="W"/>
      <path d="M30-248c87 1 191-15 191 75 0 78-77 80-158 76V0H30v-248zm33 125c57 0 124 11 124-50 0-59-68-47-124-48v98" id="X"/>
      <g id="n">
        <path d="M 6.75 -7.15 C 6.6 -8.85 2.45 -9.05 2.4 -7.15 C 3.15 -4.5 8.15 -6.55 8.35 -2.65 C 8.55 1.25 0.85 1.05 0.5 -2.25 L 1.9 -2.5 C 2.1 -0.7 6.75 -0.25 6.8 -2.5 C 6.3 -5.3 1.15 -3.25 0.9 -7 C 0.7 -9.85 5 -10.15 7 -9.1 C 7.6 -8.75 8.05 -8.15 8.2 -7.35"/>
        <path d="M 14.8 -4.1 L 14.8 -5.5 L 19.2 -5.5 L 19.2 -4.1 L 14.8 -4.1"/>
        <path d="M 27 -1.8 C 26.25 -0.75 25.45 0.25 23.6 0.2 C 21.8 0.15 20.7 -0.85 20.7 -2.65 C 20.65 -5.85 23.85 -5.8 26.95 -5.8 C 27.1 -7.55 26.5 -8.5 24.9 -8.5 C 23.7 -8.45 22.85 -8.15 22.8 -6.95 L 21.15 -7.1 C 21.4 -8.95 22.8 -9.7 24.95 -9.7 C 27.2 -9.7 28.55 -8.7 28.55 -6.5 L 28.55 -2.4 C 28.5 -1.4 28.9 -0.8 29.95 -1.05 L 29.95 -0.05 C 28.4 0.4 26.9 -0.15 27 -1.8 Z M 22.35 -2.65 C 22.35 -1.65 22.95 -1 23.95 -1 C 26 -1.15 27.1 -2.45 26.95 -4.7 C 24.8 -4.6 22.35 -4.95 22.35 -2.65"/>
      </g>
      <path d="M233-177c-1 41-23 64-60 70L243 0h-38l-65-103H63V0H30v-248c88 3 205-21 203 71zM63-129c60-2 137 13 137-47 0-61-80-42-137-45v92" id="Y"/>
      <path d="M 4.2 0.2 C -0.25 0.4 1.5 -5.6 1.15 -9.5 L 2.75 -9.5 L 2.75 -3.5 C 2.75 -1.95 3.1 -1 4.7 -1.05 C 8.3 -1.15 6.95 -6.1 7.2 -9.5 L 8.75 -9.5 L 8.8 0 L 7.3 0 C 7.25 -0.5 7.35 -1.25 7.2 -1.65 C 6.65 -0.55 5.8 0.15 4.2 0.2" id="o"/>
      <path d="M 10.25 0 L 8.85 -3.6 L 3.2 -3.6 L 1.8 0 L 0.05 0 L 5.1 -12.4 L 7 -12.4 L 11.95 0 L 10.25 0 Z M 8.35 -4.95 L 6 -11.1 C 5.4 -8.85 4.45 -7 3.7 -4.95 L 8.35 -4.95" id="p"/>
      <path d="M 5.7 -8.15 C 1.8 -8.95 3.05 -3.6 2.85 0 L 1.25 0 L 1.2 -9.5 L 2.7 -9.5 C 2.75 -8.9 2.65 -8.05 2.8 -7.55 C 3.1 -8.9 3.95 -10 5.7 -9.6 L 5.7 -8.15" id="q"/>
      <path d="M 4.2 0.2 C -0.25 0.4 1.5 -5.6 1.15 -9.5 L 2.75 -9.5 L 2.75 -3.5 C 2.75 -1.95 3.1 -1 4.7 -1.05 C 8.3 -1.15 6.95 -6.1 7.2 -9.5 L 8.75 -9.5 L 8.8 0 L 7.3 0 C 7.25 -0.5 7.35 -1.25 7.2 -1.65 C 6.65 -0.55 5.8 0.15 4.2 0.2" id="r"/>
    </defs>
    <text style="fill: rgb(51, 51, 51); font-size: 16px; white-space: pre;" x="881.61" y="295.831">A</text>
  </g>
  <text x="736.003" y="336.306" style="white-space: pre; fill: rgb(51, 51, 51); font-size: 24px;">UIC</text>
  <text style="fill: rgb(51, 51, 51); font-size: 24px; white-space: pre;" x="1112.2" y="333.55" dx="-4.134" dy="8.268">R</text>
</svg>